<svg xmlns="http://www.w3.org/2000/svg" xmlns:xlink="http://www.w3.org/1999/xlink" width="60.75mm" height="35.73mm" viewBox="0 0 172.21 101.27">
  <defs>
    <radialGradient id="Sfumatura_senza_nome_34" data-name="Sfumatura senza nome 34" cx="86.11" cy="35.22" r="19.64" gradientUnits="userSpaceOnUse">
      <stop offset="0" stop-color="#c30d0e"/>
      <stop offset="1" stop-color="#821716"/>
    </radialGradient>
  </defs>
  <g id="Livello_2" data-name="Livello 2">
    <g id="Livello_1-2" data-name="Livello 1">
      <g>
        <g>
          <path d="M8.25,88.51V82.35H10a7.7,7.7,0,0,1,1.44.09,2,2,0,0,1,.7.32,1.69,1.69,0,0,1,.51.64,2.08,2.08,0,0,1,.18.87,1.86,1.86,0,0,1-.35,1.16,1.75,1.75,0,0,1-1,.6l1.68,2.48h-1.9L9.83,86.1v2.41Zm1.58-3.25h.31a1.28,1.28,0,0,0,.79-.19.65.65,0,0,0,.25-.58.79.79,0,0,0-.23-.65,1.24,1.24,0,0,0-.78-.2H9.83Z" style="fill: #1d1d1b"/>
          <path d="M13.6,88.51V82.35h3.78V83.7H15.24v1.07h2v1.32h-2v1h2.14v1.38Z" style="fill: #1d1d1b"/>
          <path d="M21.24,86.24V85h3.3s0,.09,0,.14v.22a3.42,3.42,0,0,1-.84,2.47,3.11,3.11,0,0,1-2.37.88A3.71,3.71,0,0,1,20,88.43a3.07,3.07,0,0,1-1-.68,3.22,3.22,0,0,1-.68-1,3.41,3.41,0,0,1-.24-1.27,3.5,3.5,0,0,1,.23-1.27,3.11,3.11,0,0,1,.71-1,3,3,0,0,1,1.06-.68,3.65,3.65,0,0,1,1.29-.23,3.47,3.47,0,0,1,1.61.36,3.1,3.1,0,0,1,1.17,1.06l-1.46.7a1.69,1.69,0,0,0-.58-.53,1.53,1.53,0,0,0-.74-.18,1.47,1.47,0,0,0-1.18.51,2,2,0,0,0-.44,1.37,2.07,2.07,0,0,0,.44,1.39,1.49,1.49,0,0,0,1.18.5,1.74,1.74,0,0,0,1.07-.31,1.2,1.2,0,0,0,.5-.84Z" style="fill: #1d1d1b"/>
          <path d="M25.44,88.51V82.35h1.69v6.16Z" style="fill: #1d1d1b"/>
          <path d="M34.64,85.44a3.07,3.07,0,0,1-.25,1.25,3.16,3.16,0,0,1-.71,1,3.24,3.24,0,0,1-1.08.7,3.3,3.3,0,0,1-2.52,0,3.16,3.16,0,0,1-1.06-.7,3.26,3.26,0,0,1-.73-1,3.32,3.32,0,0,1,0-2.48,3.12,3.12,0,0,1,.73-1,3.19,3.19,0,0,1,1.06-.71,3.36,3.36,0,0,1,1.26-.24,3.45,3.45,0,0,1,1.27.24,3.23,3.23,0,0,1,1.07.71,3.06,3.06,0,0,1,.71,1A3.23,3.23,0,0,1,34.64,85.44Zm-3.3,1.81a1.48,1.48,0,0,0,1.16-.51,1.91,1.91,0,0,0,.46-1.3,1.84,1.84,0,0,0-.47-1.29,1.53,1.53,0,0,0-2.3,0,1.84,1.84,0,0,0-.46,1.29,1.89,1.89,0,0,0,.45,1.3A1.48,1.48,0,0,0,31.34,87.25Z" style="fill: #1d1d1b"/>
          <path d="M35.51,88.51V82.35h1.62l2.33,3.17a3.79,3.79,0,0,1,.22.39c.1.19.22.42.34.69,0-.25-.06-.48-.07-.68a5.29,5.29,0,0,1,0-.53v-3h1.62v6.16H39.92l-2.33-3.18c0-.07-.12-.2-.22-.39L37,84.25c0,.26.06.49.08.69s0,.37,0,.53v3Z" style="fill: #1d1d1b"/>
          <path d="M42.68,88.51V82.35h3.77V83.7H44.31v1.07h2v1.32h-2v1h2.14v1.38Z" style="fill: #1d1d1b"/>
          <path d="M49.18,88.51l2.12-6.16h2.11l2.13,6.16H53.87l-.31-1.1H51.17l-.32,1.1Zm2.35-2.3H53.2l-.62-2c0-.06,0-.16-.08-.29s-.08-.32-.14-.54c0,.16-.07.3-.1.44s-.07.27-.11.39Z" style="fill: #1d1d1b"/>
          <path d="M55.76,82.35h1.67v3a9.27,9.27,0,0,0,0,.94,1.88,1.88,0,0,0,.11.49.79.79,0,0,0,.34.36,1.28,1.28,0,0,0,.58.12,1.32,1.32,0,0,0,.59-.12.79.79,0,0,0,.34-.36,1.88,1.88,0,0,0,.11-.49c0-.19,0-.5,0-.94v-3h1.68v3.26a6.59,6.59,0,0,1-.13,1.49,2.09,2.09,0,0,1-.41.83,1.93,1.93,0,0,1-.87.56,4.32,4.32,0,0,1-1.34.19,4.37,4.37,0,0,1-1.34-.19,2,2,0,0,1-.87-.56,2.23,2.23,0,0,1-.41-.83,6.72,6.72,0,0,1-.12-1.49V82.35Z" style="fill: #1d1d1b"/>
          <path d="M63.23,88.51V83.8H61.85V82.35h4.44V83.8H64.91v4.71Z" style="fill: #1d1d1b"/>
          <path d="M73.26,85.44A3.07,3.07,0,0,1,73,86.69a3.16,3.16,0,0,1-.71,1,3.31,3.31,0,0,1-1.07.7,3.45,3.45,0,0,1-1.26.25,3.38,3.38,0,0,1-1.27-.25,3.16,3.16,0,0,1-1.06-.7,3.26,3.26,0,0,1-.73-1,3.32,3.32,0,0,1,0-2.48,3.12,3.12,0,0,1,.73-1,3.19,3.19,0,0,1,1.06-.71,3.45,3.45,0,0,1,2.53,0,3.23,3.23,0,0,1,1.07.71,3.18,3.18,0,0,1,1,2.28ZM70,87.25a1.47,1.47,0,0,0,1.15-.51,2,2,0,0,0,0-2.59,1.53,1.53,0,0,0-2.3,0,2.07,2.07,0,0,0,0,2.59A1.49,1.49,0,0,0,70,87.25Zm-1.22-7h1.18l.77,1.47h-.65Z" style="fill: #1d1d1b"/>
          <path d="M74.13,88.51V82.35h1.62l2.33,3.17a3.79,3.79,0,0,1,.22.39c.1.19.22.42.34.69,0-.25-.06-.48-.07-.68a5.29,5.29,0,0,1,0-.53v-3h1.62v6.16H78.54l-2.33-3.18c0-.07-.12-.2-.22-.39l-.34-.69c0,.26.06.49.08.69s0,.37,0,.53v3Z" style="fill: #1d1d1b"/>
          <path d="M87.63,85.44a3.07,3.07,0,0,1-.25,1.25,3.16,3.16,0,0,1-.71,1,3.24,3.24,0,0,1-1.08.7,3.3,3.3,0,0,1-2.52,0,3.16,3.16,0,0,1-1.06-.7,3.26,3.26,0,0,1-.73-1,3.32,3.32,0,0,1,0-2.48,3.12,3.12,0,0,1,.73-1,3.19,3.19,0,0,1,1.06-.71,3.36,3.36,0,0,1,1.26-.24,3.45,3.45,0,0,1,1.27.24,3.33,3.33,0,0,1,1.07.71,3.06,3.06,0,0,1,.71,1A3.23,3.23,0,0,1,87.63,85.44Zm-3.3,1.81a1.5,1.5,0,0,0,1.16-.51,1.91,1.91,0,0,0,.46-1.3,1.84,1.84,0,0,0-.47-1.29,1.53,1.53,0,0,0-2.3,0,1.84,1.84,0,0,0-.46,1.29,1.89,1.89,0,0,0,.45,1.3A1.48,1.48,0,0,0,84.33,87.25Z" style="fill: #1d1d1b"/>
          <path d="M95.57,88.51H94l-.37-2.66q0-.28-.06-.63c0-.23,0-.48-.06-.76a8.22,8.22,0,0,1-.23,1l-.06.18-.84,2.89H91.26l-.83-2.89-.05-.18a7.09,7.09,0,0,1-.24-1c0,.23,0,.46,0,.69s0,.46-.09.69l-.36,2.66H88.08l1-6.16H90.7l.93,3.18a.45.45,0,0,0,0,.11,3.53,3.53,0,0,1,.16.72c0-.11,0-.23.07-.36s.07-.29.12-.48L93,82.35h1.67Z" style="fill: #1d1d1b"/>
          <path d="M95.57,88.51l2.12-6.16H99.8l2.13,6.16h-1.67l-.31-1.1H97.56l-.32,1.1Zm2.35-2.3h1.67l-.63-2a2.83,2.83,0,0,0-.08-.29c0-.14-.07-.32-.13-.54,0,.16-.07.3-.1.44s-.07.27-.11.39Z" style="fill: #1d1d1b"/>
          <path d="M104.86,88.51V82.35h1.28a10.55,10.55,0,0,1,2,.13,2.93,2.93,0,0,1,1,.45,2.74,2.74,0,0,1,.89,1,3.36,3.36,0,0,1,.3,1.45,3.4,3.4,0,0,1-.3,1.46,2.71,2.71,0,0,1-.89,1,2.94,2.94,0,0,1-1,.45,8.58,8.58,0,0,1-1.78.13h-1.56Zm1.66-1.38h.28a2.16,2.16,0,0,0,1.45-.41,2.07,2.07,0,0,0,0-2.58,2.11,2.11,0,0,0-1.45-.42h-.28Z" style="fill: #1d1d1b"/>
          <path d="M111.28,88.51V82.35h3.78V83.7h-2.14v1.07h2v1.32h-2v1h2.14v1.38Z" style="fill: #1d1d1b"/>
          <path d="M118.78,86.52a3.21,3.21,0,0,0,.74.64,1.43,1.43,0,0,0,.73.21.8.8,0,0,0,.55-.19.58.58,0,0,0,.22-.45.62.62,0,0,0-.19-.48,2.51,2.51,0,0,0-.85-.34,2.77,2.77,0,0,1-1.28-.64,1.49,1.49,0,0,1-.38-1.07,1.87,1.87,0,0,1,.6-1.44,2.13,2.13,0,0,1,1.53-.56,3.12,3.12,0,0,1,1,.14,3.23,3.23,0,0,1,.86.41L121.76,84a2.22,2.22,0,0,0-.59-.37,1.61,1.61,0,0,0-.6-.12.84.84,0,0,0-.49.14.44.44,0,0,0-.19.37.49.49,0,0,0,.17.38,1.74,1.74,0,0,0,.64.26l.08,0a3.28,3.28,0,0,1,1.35.61,1.68,1.68,0,0,1,.33.55,1.94,1.94,0,0,1,.11.7,2,2,0,0,1-.64,1.58,2.42,2.42,0,0,1-1.72.6,3.13,3.13,0,0,1-1.17-.22,3.54,3.54,0,0,1-1-.69Z" style="fill: #1d1d1b"/>
          <path d="M122.61,88.51l2.13-6.16h2.1L129,88.51H127.3l-.31-1.1H124.6l-.32,1.1Zm2.35-2.3h1.68l-.63-2c0-.06-.05-.16-.08-.29s-.08-.32-.13-.54c0,.16-.07.3-.11.44a3.64,3.64,0,0,1-.11.39Z" style="fill: #1d1d1b"/>
          <path d="M129.38,88.51V82.35h1.76a7.7,7.7,0,0,1,1.44.09,2,2,0,0,1,.7.32,1.69,1.69,0,0,1,.51.64,2.08,2.08,0,0,1,.18.87,1.86,1.86,0,0,1-.35,1.16,1.75,1.75,0,0,1-1,.6l1.68,2.48h-1.9L131,86.1v2.41ZM131,85.26h.31a1.3,1.3,0,0,0,.79-.19.65.65,0,0,0,.25-.58.79.79,0,0,0-.23-.65,1.25,1.25,0,0,0-.79-.2H131Z" style="fill: #1d1d1b"/>
          <path d="M134.73,88.51V82.35H136a10.67,10.67,0,0,1,2,.13,3,3,0,0,1,1,.45,2.66,2.66,0,0,1,.89,1,3.36,3.36,0,0,1,.3,1.45,3.4,3.4,0,0,1-.3,1.46,2.63,2.63,0,0,1-.89,1,2.94,2.94,0,0,1-1,.45,8.47,8.47,0,0,1-1.77.13h-1.57Zm1.66-1.38h.29a2.13,2.13,0,0,0,1.44-.41,2.07,2.07,0,0,0,0-2.58,2.08,2.08,0,0,0-1.44-.42h-.29Z" style="fill: #1d1d1b"/>
          <path d="M141.2,88.51V82.35h1.7v6.16Z" style="fill: #1d1d1b"/>
          <path d="M147,86.24V85h3.3s0,.09,0,.14v.22a3.42,3.42,0,0,1-.84,2.47,3.1,3.1,0,0,1-2.36.88,3.73,3.73,0,0,1-1.34-.23,3.07,3.07,0,0,1-1-.68,3.22,3.22,0,0,1-.68-1,3.41,3.41,0,0,1-.24-1.27,3.5,3.5,0,0,1,.23-1.27,3.27,3.27,0,0,1,.71-1,3.06,3.06,0,0,1,1.06-.68,3.66,3.66,0,0,1,1.3-.23,3.46,3.46,0,0,1,1.6.36,3.1,3.1,0,0,1,1.17,1.06l-1.46.7a1.69,1.69,0,0,0-.58-.53,1.49,1.49,0,0,0-.73-.18,1.47,1.47,0,0,0-1.19.51,2,2,0,0,0-.44,1.37,2.07,2.07,0,0,0,.44,1.39,1.5,1.5,0,0,0,1.19.5,1.73,1.73,0,0,0,1.06-.31,1.2,1.2,0,0,0,.5-.84Z" style="fill: #1d1d1b"/>
          <path d="M151.16,88.51V82.35h1.62l2.33,3.17c0,.06.11.19.22.39s.21.42.34.69c0-.25-.06-.48-.08-.68s0-.37,0-.53v-3h1.61v6.16h-1.61l-2.33-3.18a4.14,4.14,0,0,1-.22-.39c-.11-.2-.22-.43-.34-.69,0,.26.06.49.07.69a5.29,5.29,0,0,1,0,.53v3Z" style="fill: #1d1d1b"/>
          <path d="M157.6,88.51l2.13-6.16h2.1L164,88.51h-1.67l-.31-1.1h-2.39l-.32,1.1Zm2.35-2.3h1.68l-.63-2c0-.06-.05-.16-.08-.29s-.08-.32-.13-.54c0,.16-.08.3-.11.44s-.07.27-.11.39Z" style="fill: #1d1d1b"/>
          <path d="M0,101.11V94.94H1.76a6.67,6.67,0,0,1,1.43.1,1.84,1.84,0,0,1,.71.32,1.61,1.61,0,0,1,.51.64,2,2,0,0,1,.18.86A1.82,1.82,0,0,1,4.23,98a1.68,1.68,0,0,1-1,.59l1.68,2.49H3L1.58,98.7v2.41Zm1.58-3.25h.31a1.3,1.3,0,0,0,.79-.19.67.67,0,0,0,.25-.58.84.84,0,0,0-.23-.66,1.26,1.26,0,0,0-.79-.19H1.58Z" style="fill: #1d1d1b"/>
          <path d="M5.35,101.11V94.94H9.12v1.35H7v1.07H9v1.33H7v1H9.12v1.38Z" style="fill: #1d1d1b"/>
          <path d="M13,98.84v-1.3h3.3v.14s0,.13,0,.23a3.44,3.44,0,0,1-.84,2.47,3.14,3.14,0,0,1-2.37.87,3.67,3.67,0,0,1-1.33-.22A3.07,3.07,0,0,1,10,99.29,3.18,3.18,0,0,1,9.79,98,3.3,3.3,0,0,1,10,96.76a3.13,3.13,0,0,1,.7-1A3.1,3.1,0,0,1,11.8,95a3.67,3.67,0,0,1,2.89.12,3.17,3.17,0,0,1,1.18,1.07l-1.46.7a1.86,1.86,0,0,0-.59-.54,1.6,1.6,0,0,0-.73-.17,1.51,1.51,0,0,0-1.19.5,2.43,2.43,0,0,0,0,2.76,1.49,1.49,0,0,0,1.19.51,1.76,1.76,0,0,0,1.07-.32,1.21,1.21,0,0,0,.5-.83Z" style="fill: #1d1d1b"/>
          <path d="M17.18,101.11V94.94h1.7v6.17Z" style="fill: #1d1d1b"/>
          <path d="M26.38,98a3.19,3.19,0,0,1-.24,1.24,3.06,3.06,0,0,1-.71,1,3.49,3.49,0,0,1-1.08.71,3.43,3.43,0,0,1-2.52,0,3.23,3.23,0,0,1-1.07-.71,3.09,3.09,0,0,1-.72-1A3.23,3.23,0,0,1,19.79,98a3.13,3.13,0,0,1,1-2.29,3.2,3.2,0,0,1,1.07-.7,3.37,3.37,0,0,1,1.26-.25,3.46,3.46,0,0,1,1.27.25,3.31,3.31,0,0,1,1.07.7,3.21,3.21,0,0,1,.71,1A3.27,3.27,0,0,1,26.38,98Zm-3.29,1.81a1.47,1.47,0,0,0,1.16-.52A1.88,1.88,0,0,0,24.7,98a1.84,1.84,0,0,0-.46-1.29,1.54,1.54,0,0,0-2.3,0,2.08,2.08,0,0,0,0,2.6A1.48,1.48,0,0,0,23.09,99.85Z" style="fill: #1d1d1b"/>
          <path d="M27.26,101.11V94.94h1.62l2.33,3.17.22.39.34.7c0-.26-.06-.48-.08-.68s0-.38,0-.53v-3h1.61v6.17H31.67l-2.33-3.19a2.49,2.49,0,0,1-.22-.39c-.11-.19-.22-.42-.34-.68,0,.26.06.48.07.68s0,.38,0,.53v3Z" style="fill: #1d1d1b"/>
          <path d="M34.42,101.11V94.94H38.2v1.35H36.06v1.07h2v1.33h-2v1H38.2v1.38Z" style="fill: #1d1d1b"/>
          <path d="M40.92,101.11l2.13-6.17h2.11l2.13,6.17H45.61L45.3,100H42.92l-.32,1.11Zm2.36-2.31H45l-.63-2c0-.06,0-.16-.08-.3s-.07-.31-.13-.53c0,.15-.07.3-.11.43s-.07.27-.1.4Z" style="fill: #1d1d1b"/>
          <path d="M47.51,94.94h1.67v3c0,.44,0,.76,0,1a1.87,1.87,0,0,0,.12.48.66.66,0,0,0,.34.36,1.36,1.36,0,0,0,1.16,0,.66.66,0,0,0,.34-.36,1.87,1.87,0,0,0,.12-.48c0-.19,0-.51,0-1v-3H53V98.2a6.77,6.77,0,0,1-.12,1.5,2,2,0,0,1-.41.82,1.85,1.85,0,0,1-.87.56,4.82,4.82,0,0,1-2.68,0,1.85,1.85,0,0,1-.87-.56,2,2,0,0,1-.41-.82,6.77,6.77,0,0,1-.12-1.5V94.94Z" style="fill: #1d1d1b"/>
          <path d="M55,101.11V96.4H53.59V94.94H58V96.4H56.66v4.71Z" style="fill: #1d1d1b"/>
          <path d="M64.85,98a3.19,3.19,0,0,1-.24,1.24,3.06,3.06,0,0,1-.71,1,3.49,3.49,0,0,1-1.08.71,3.36,3.36,0,0,1-1.26.24,3.45,3.45,0,0,1-1.27-.24,3.29,3.29,0,0,1-1.06-.71,3,3,0,0,1-.72-1A3.05,3.05,0,0,1,58.26,98a3.1,3.1,0,0,1,.25-1.25,3.14,3.14,0,0,1,.72-1,3.26,3.26,0,0,1,1.06-.7,3.35,3.35,0,0,1,2.54,0,3.31,3.31,0,0,1,1.07.7,3.21,3.21,0,0,1,.71,1A3.27,3.27,0,0,1,64.85,98Zm-3.29,1.81a1.47,1.47,0,0,0,1.16-.52A1.88,1.88,0,0,0,63.17,98a1.84,1.84,0,0,0-.46-1.29,1.47,1.47,0,0,0-1.15-.52,1.5,1.5,0,0,0-1.16.51A1.92,1.92,0,0,0,60,98a1.89,1.89,0,0,0,.45,1.3A1.48,1.48,0,0,0,61.56,99.85Z" style="fill: #1d1d1b"/>
          <path d="M65.72,101.11V94.94h1.63l2.32,3.17c0,.07.12.2.23.39s.21.43.33.7c0-.26,0-.48-.07-.68a5.16,5.16,0,0,1,0-.53v-3h1.61v6.17H70.14l-2.33-3.19a3.3,3.3,0,0,1-.23-.39c-.1-.19-.21-.42-.33-.68,0,.26.06.48.07.68s0,.38,0,.53v3Z" style="fill: #1d1d1b"/>
          <path d="M79.22,98a3.11,3.11,0,0,1-1,2.28,3.49,3.49,0,0,1-1.08.71,3.45,3.45,0,0,1-2.53,0,3.29,3.29,0,0,1-1.06-.71,3,3,0,0,1-.72-1A3.05,3.05,0,0,1,72.63,98a3.1,3.1,0,0,1,.25-1.25,3.14,3.14,0,0,1,.72-1,3.26,3.26,0,0,1,1.06-.7,3.46,3.46,0,0,1,1.27-.25,3.37,3.37,0,0,1,1.26.25,3.24,3.24,0,0,1,1.08.7,3.18,3.18,0,0,1,.7,1A3.1,3.1,0,0,1,79.22,98Zm-3.29,1.81a1.45,1.45,0,0,0,1.15-.52,2,2,0,0,0,0-2.58,1.47,1.47,0,0,0-1.15-.52,1.5,1.5,0,0,0-1.16.51,1.92,1.92,0,0,0-.45,1.3,1.84,1.84,0,0,0,.45,1.3A1.47,1.47,0,0,0,75.93,99.85Z" style="fill: #1d1d1b"/>
          <path d="M87.16,101.11H85.59l-.36-2.67c0-.19,0-.4-.07-.63s0-.48-.06-.75a6.94,6.94,0,0,1-.23,1l-.05.18L84,101.11H82.86L82,98.22,82,98a7.18,7.18,0,0,1-.23-1l-.06.69c0,.23-.05.45-.08.68l-.36,2.67H79.68l.95-6.17h1.66l.93,3.18a.53.53,0,0,1,0,.11,3.72,3.72,0,0,1,.17.73,2.7,2.7,0,0,1,.06-.36c0-.14.07-.3.13-.49l.94-3.17h1.66Z" style="fill: #1d1d1b"/>
          <path d="M87.16,101.11l2.13-6.17h2.1l2.13,6.17H91.85L91.54,100H89.15l-.32,1.11Zm2.35-2.31h1.68l-.63-2a2.83,2.83,0,0,1-.08-.3c0-.14-.08-.31-.13-.53,0,.15-.07.3-.11.43s-.07.27-.11.4Z" style="fill: #1d1d1b"/>
          <path d="M96.45,101.11V94.94h1.28a10.46,10.46,0,0,1,2,.14,3,3,0,0,1,1,.45,2.63,2.63,0,0,1,.89,1A3.43,3.43,0,0,1,102,98a3.36,3.36,0,0,1-.3,1.45,2.59,2.59,0,0,1-.89,1,2.75,2.75,0,0,1-1,.44,8.32,8.32,0,0,1-1.77.14H96.45Zm1.66-1.38h.29a2.13,2.13,0,0,0,1.44-.41,1.66,1.66,0,0,0,.45-1.29,1.69,1.69,0,0,0-.45-1.3,2.13,2.13,0,0,0-1.44-.41h-.29Z" style="fill: #1d1d1b"/>
          <path d="M102.88,101.11V94.94h3.77v1.35h-2.14v1.07h2v1.33h-2v1h2.14v1.38Z" style="fill: #1d1d1b"/>
          <path d="M107.58,101.11V94.94h1.68v4.73h2.09v1.44Z" style="fill: #1d1d1b"/>
          <path d="M112,101.11V94.94h1.68v4.73h2.09v1.44Z" style="fill: #1d1d1b"/>
          <path d="M115.68,101.11l2.12-6.17h2.11l2.13,6.17h-1.67l-.31-1.11h-2.39l-.32,1.11ZM118,98.8h1.67l-.62-2a2.83,2.83,0,0,1-.08-.3c0-.14-.08-.31-.14-.53,0,.15-.07.3-.1.43s-.07.27-.11.4Z" style="fill: #1d1d1b"/>
          <path d="M125.24,99.12a3.15,3.15,0,0,0,.74.63,1.42,1.42,0,0,0,.72.21.86.86,0,0,0,.56-.18.57.57,0,0,0,.21-.46.61.61,0,0,0-.18-.47,2.32,2.32,0,0,0-.85-.34,2.87,2.87,0,0,1-1.28-.64,1.49,1.49,0,0,1-.38-1.07,1.91,1.91,0,0,1,.6-1.45,2.13,2.13,0,0,1,1.53-.55,3.44,3.44,0,0,1,1,.13,3,3,0,0,1,.86.42l-.52,1.21a2.13,2.13,0,0,0-.59-.37,1.44,1.44,0,0,0-.6-.13.77.77,0,0,0-.49.15.44.44,0,0,0-.19.37.45.45,0,0,0,.17.37,1.9,1.9,0,0,0,.64.27l.07,0a3.14,3.14,0,0,1,1.36.61,1.63,1.63,0,0,1,.33.54,2.3,2.3,0,0,1,.11.71,2.06,2.06,0,0,1-.64,1.58,2.46,2.46,0,0,1-1.72.59,2.94,2.94,0,0,1-1.17-.22,3.31,3.31,0,0,1-1-.68Z" style="fill: #1d1d1b"/>
          <path d="M129.07,101.11l2.13-6.17h2.1l2.13,6.17h-1.67l-.31-1.11h-2.39l-.32,1.11Zm2.35-2.31h1.68l-.63-2a2.83,2.83,0,0,1-.08-.3c0-.14-.08-.31-.13-.53,0,.15-.07.3-.11.43s-.07.27-.11.4Z" style="fill: #1d1d1b"/>
          <path d="M135.84,101.11V94.94h1.76A6.84,6.84,0,0,1,139,95a1.8,1.8,0,0,1,.7.32,1.61,1.61,0,0,1,.51.64,2,2,0,0,1,.18.86,1.82,1.82,0,0,1-.36,1.17,1.68,1.68,0,0,1-1,.59l1.68,2.49h-1.9l-1.41-2.41v2.41Zm1.58-3.25h.31a1.3,1.3,0,0,0,.79-.19.67.67,0,0,0,.25-.58.84.84,0,0,0-.23-.66,1.26,1.26,0,0,0-.79-.19h-.33Z" style="fill: #1d1d1b"/>
          <path d="M141.19,101.11V94.94h1.28a10.46,10.46,0,0,1,2,.14,3,3,0,0,1,1,.45,2.63,2.63,0,0,1,.89,1,3.43,3.43,0,0,1,.3,1.46,3.36,3.36,0,0,1-.3,1.45,2.59,2.59,0,0,1-.89,1,2.75,2.75,0,0,1-1,.44,8.36,8.36,0,0,1-1.78.14h-1.56Zm1.66-1.38h.28a2.16,2.16,0,0,0,1.45-.41A1.66,1.66,0,0,0,145,98a1.69,1.69,0,0,0-.45-1.3,2.16,2.16,0,0,0-1.45-.41h-.28Z" style="fill: #1d1d1b"/>
          <path d="M147.62,101.11V94.94h3.77v1.35h-2.14v1.07h2v1.33h-2v1h2.14v1.38Z" style="fill: #1d1d1b"/>
          <path d="M155.25,98.84v-1.3h3.3a.66.66,0,0,1,0,.14v.23a3.44,3.44,0,0,1-.84,2.47,3.13,3.13,0,0,1-2.36.87A3.64,3.64,0,0,1,154,101a3,3,0,0,1-1.73-1.74,3.36,3.36,0,0,1-.24-1.26,3.3,3.3,0,0,1,.24-1.27,3,3,0,0,1,.7-1,3.06,3.06,0,0,1,1.06-.68,3.49,3.49,0,0,1,1.3-.24,3.43,3.43,0,0,1,1.6.36,3.07,3.07,0,0,1,1.17,1.07l-1.45.7a1.86,1.86,0,0,0-.59-.54,1.6,1.6,0,0,0-.73-.17,1.51,1.51,0,0,0-1.19.5,2.43,2.43,0,0,0,0,2.76,1.49,1.49,0,0,0,1.19.51,1.73,1.73,0,0,0,1.06-.32,1.15,1.15,0,0,0,.5-.83Z" style="fill: #1d1d1b"/>
          <path d="M159.41,101.11V94.94H161l2.33,3.17c0,.07.12.2.22.39s.22.43.34.7c0-.26-.06-.48-.07-.68s0-.38,0-.53v-3h1.62v6.17h-1.62l-2.33-3.19a3.79,3.79,0,0,1-.22-.39c-.1-.19-.22-.42-.34-.68,0,.26.06.48.08.68s0,.38,0,.53v3Z" style="fill: #1d1d1b"/>
          <path d="M165.85,101.11,168,94.94h2.1l2.13,6.17h-1.67l-.31-1.11h-2.39l-.32,1.11Zm2.36-2.31h1.67l-.63-2a2.83,2.83,0,0,1-.08-.3c0-.14-.08-.31-.13-.53,0,.15-.07.3-.11.43s-.07.27-.11.4Z" style="fill: #1d1d1b"/>
        </g>
        <g>
          <path d="M89.52,11.9a1.73,1.73,0,0,1-.86.23,1.76,1.76,0,0,1-1.73-1.35,2.27,2.27,0,0,1,1.6-2.67A3.45,3.45,0,0,1,89.39,8a3.91,3.91,0,0,0-1-1.92,1.58,1.58,0,0,1-.47-1.4A2,2,0,0,0,87.21,3a7.25,7.25,0,0,1-.79-1,2.17,2.17,0,0,1-.31-.79,2.16,2.16,0,0,1-.33.81A6.07,6.07,0,0,1,85,3a2,2,0,0,0-.68,1.6A1.61,1.61,0,0,1,83.84,6a3.9,3.9,0,0,0-1,1.91,3.29,3.29,0,0,1,.85.16,2.28,2.28,0,0,1,1.61,2.67,1.76,1.76,0,0,1-1.73,1.35,1.74,1.74,0,0,1-.87-.23,1.45,1.45,0,0,1-.82-1.18c-.43.24-1.17.7-2.22,1.43h.1a4,4,0,0,1,2.93,1.11,2.43,2.43,0,0,1,.54,2,1.24,1.24,0,0,1-.1.29,7.59,7.59,0,0,0,2.8-1.61l.19-.16.19.16a7.59,7.59,0,0,0,2.8,1.61,1.93,1.93,0,0,1-.11-.34,2.44,2.44,0,0,1,.54-1.9,4,4,0,0,1,2.94-1.11h.09c-1-.73-1.78-1.19-2.22-1.43A1.41,1.41,0,0,1,89.52,11.9Z" style="fill: #fff"/>
          <path d="M64.13,24.55a1.53,1.53,0,0,0-.3,0,1.28,1.28,0,0,0-1,.42,4.53,4.53,0,0,0-.76,3.27c0,.63.26,1.27,1.83,1.27a8.51,8.51,0,0,0,1.48-.15,30.25,30.25,0,0,1,1-4.42,17,17,0,0,1-1.73-.27Z" style="fill: #fff"/>
          <path d="M66,18.38a1.77,1.77,0,0,0-1.41.73,2.69,2.69,0,0,0-.39,2.33c.28,1.1,2,1.18,2.58,1.18a4,4,0,0,0,.49,0,16.49,16.49,0,0,1,1.31-2.66l-.44-.34a7.68,7.68,0,0,0-1.7-1.16A1.67,1.67,0,0,0,66,18.38Z" style="fill: #fff"/>
          <path d="M96.21,8.79a1.94,1.94,0,0,1-.08-.9,2.65,2.65,0,0,1,.1-.42,1.93,1.93,0,0,0-.74.55,2.07,2.07,0,0,0-.29,2.07c0,.05,0,.11,0,.19a1.53,1.53,0,0,0,.39.7L94.39,10a3.79,3.79,0,0,1-1.64-3.21,2.29,2.29,0,0,1,.08-.35l0-.08.07-.15,0-.06a.46.46,0,0,1,.07-.07l0,0,.07,0h0a.45.45,0,0,1,.18.07h0l.15.15a.67.67,0,0,0,.26.19l.1,0a.58.58,0,0,0,.18,0h.05a.69.69,0,0,0,.24,0l.08,0,.18-.11.06-.06a.71.71,0,0,0,.19-.23v0A.77.77,0,0,0,95,5.78a.28.28,0,0,0,0-.09,1.07,1.07,0,0,0,0-.25.43.43,0,0,0,0-.11,1.27,1.27,0,0,0-.2-.38,1.19,1.19,0,0,0-.22-.23.53.53,0,0,1-.1-.06,1,1,0,0,0-.2-.11l-.13,0-.21-.07-.16,0-.18,0h0l-.23,0-.17,0a1,1,0,0,0-.24.1l-.17.08a2.52,2.52,0,0,0-.25.21,1.42,1.42,0,0,0-.13.12,2.24,2.24,0,0,0-.33.48,4,4,0,0,0-.2,2.31,3.81,3.81,0,0,0,.12.51,2.31,2.31,0,0,0,.43.81l.24.3.07.08a.85.85,0,0,0,.17.16h0l-.16-.1-.08,0-.2-.11-.13-.07L92,9.16l-.16-.08L91.57,9l-.19-.08-.3-.11-.2-.06-.35-.09-.18,0a2.13,2.13,0,0,0-.25,0l-.3,0h-.15l-.25,0h-.17a2.8,2.8,0,0,0-.5.12,2,2,0,0,0-.73.42,1.68,1.68,0,0,0-.4.54,1.6,1.6,0,0,0-.14.8,1.18,1.18,0,0,0,0,.21h0a1.25,1.25,0,0,0,.16.35l.06.09a1,1,0,0,0,.2.2l0,.05a1.68,1.68,0,0,0,.3.15l.08,0a1.17,1.17,0,0,0,.26,0h.09l.19,0,.09,0a1.25,1.25,0,0,0,.27-.1.9.9,0,0,0,.52-.7c0-.23-.05-.44,0-.58s.07-.16.23-.19h0l.1,0,.11,0,.19.09.17.09.26.14.23.14.33.2.27.17.38.25.31.21.42.29.35.23.43.31.14.1h0c.22,0,.45.08.67.12s.38.05.57.1.57.17.9.29a15.9,15.9,0,0,1,6.78,5.33c1.06-.45,2.29-1.39,2.15-2.59a5.11,5.11,0,0,0-1.87-3.27,2.38,2.38,0,0,1-.29,1.18,2.15,2.15,0,0,1-1.89,1.17h-.06a2.56,2.56,0,0,1-2.11-1.14,2.8,2.8,0,0,1-.15-2.71,3.55,3.55,0,0,1,.48-.79,4.49,4.49,0,0,1-2.21-.5A1.37,1.37,0,0,1,96.21,8.79Z" style="fill: #fff"/>
          <path d="M61.47,23.15a3.81,3.81,0,0,1,.52-.44c0-.08,0-.17,0-.25-.2-1.27-.67-4.24,2.47-6.15a3.87,3.87,0,0,1,.45-.25c0-.14.13-.43.19-.67a9.16,9.16,0,0,1,1.61-3.55,16.19,16.19,0,0,0-8.29,11.34,14.59,14.59,0,0,0,1.13,9.46,9,9,0,0,1,.61-2.45C59.65,28,59.42,25.24,61.47,23.15Z" style="fill: #fff"/>
          <path d="M70.32,53.21a6.69,6.69,0,0,1-1.5.93,25.27,25.27,0,0,0,3.52,3.92,10.61,10.61,0,0,0,1.21-1.21A21.24,21.24,0,0,1,70.32,53.21Z" style="fill: #fff"/>
          <path d="M65.12,47.24a30.83,30.83,0,0,0,2.33,4.83,4.46,4.46,0,0,0,1.63-.91,28.59,28.59,0,0,1-2-4.53A7.7,7.7,0,0,1,65.12,47.24Z" style="fill: #fff"/>
          <path d="M65.24,37.17a39.67,39.67,0,0,1-.09-5.4c-.36,0-.7.05-1,.05a12.26,12.26,0,0,1-1.74-.14h-.1a.31.31,0,0,0-.26.11c-.15.16-.49.75-.35,2.63.2,2.6,1.22,3,2.19,3A6.55,6.55,0,0,0,65.24,37.17Z" style="fill: #fff"/>
          <path d="M88.85,32.45h15.74c0-.18,0-.34,0-.54v0C104.1,20.45,97.91,14.47,92,14.47h0a1.58,1.58,0,0,1,.14.65,1.48,1.48,0,0,1-.66,1.24,1.52,1.52,0,0,1-.88.27,1.84,1.84,0,0,1-.33,0,1.62,1.62,0,0,1-.71-.37,4.75,4.75,0,0,1-.74-.19Zm5.31-10.8a3.31,3.31,0,0,1,2.71-.75,2.36,2.36,0,0,1,2,2.66A3.28,3.28,0,0,1,98.29,25a8.64,8.64,0,0,1-2.69-1.61c-.81-.65-.81-.65-1.75-1.36Zm-1.34,2.48.11-.33a16,16,0,0,0,5.19,1.73,1.41,1.41,0,0,0-.2,1.5,3.71,3.71,0,0,1,.41,1.41,30,30,0,0,0-3.72,1.24c-.79.33-1.15.34-.72-.45.74-1.4,1.5-1.79,1.25-1.92-.46-.31-1.54.66-1.73-.14l-.19-.56c0-.27.83-.12.19-.34-.37-.17-.29-.21-.3-.26a3.85,3.85,0,0,1,.14-.66s-.41,0-.51-.22A1.72,1.72,0,0,1,92.82,24.13Z" style="fill: #fff"/>
          <path d="M65.5,39.39a9.6,9.6,0,0,1-2,.21h-.43a43.79,43.79,0,0,0,1.26,5.31,10.11,10.11,0,0,0,2.11-.58C65.89,42,65.62,40.3,65.5,39.39Z" style="fill: #fff"/>
          <path d="M83.37,16.05h0a6.21,6.21,0,0,1-.75.18,1.57,1.57,0,0,1-.71.37,1.84,1.84,0,0,1-.33,0,1.55,1.55,0,0,1-.88-.27,1.49,1.49,0,0,1-.65-1.24,1.57,1.57,0,0,1,.13-.65h0c-5.87,0-12.06,6-12.52,17.42v0c0,.2,0,.36,0,.54H83.37ZM75.24,29.68c-.78.33-1.14.34-.72-.45.75-1.4,1.5-1.79,1.25-1.92-.45-.31-1.54.66-1.72-.14l-.2-.56c0-.27.84-.12.19-.34-.37-.17-.29-.21-.29-.26a3.39,3.39,0,0,1,.13-.66s-.4,0-.51-.22a1.81,1.81,0,0,1,.08-1l.11-.33a16,16,0,0,0,5.19,1.73,1.43,1.43,0,0,0-.2,1.5A3.71,3.71,0,0,1,79,28.44,31.15,31.15,0,0,0,75.24,29.68ZM78.93,25a8.52,8.52,0,0,1-2.69-1.61c-.81-.65-.81-.65-1.76-1.36l.31-.41a3.31,3.31,0,0,1,2.71-.75,2.35,2.35,0,0,1,2,2.66A3.2,3.2,0,0,1,78.93,25Z" style="fill: #fff"/>
          <path d="M85.29,61.42a.77.77,0,0,1-.66-.23A1.51,1.51,0,0,0,83,60.91c-.25.13-.37.3-.36.41s.18.23.45.31a.26.26,0,0,1,.2.25.28.28,0,0,1-.2.26c-.27.07-.44.19-.45.3s.11.28.36.41a1.5,1.5,0,0,0,1.68-.28.84.84,0,0,1,.56-.25l.1,0a.94.94,0,0,1,0-.92Z" style="fill: #fff"/>
          <path d="M67.86,37.94C69.62,55.65,80,57.82,80.09,57.85a3.59,3.59,0,0,0,.84.11,2.47,2.47,0,0,0,1.12-.26,1.56,1.56,0,0,1-.48-.67A1.64,1.64,0,0,1,82,55.21a1.77,1.77,0,0,1,1.17-.43l.21,0h0V37.94S70.61,38,67.86,37.94Zm7.38,11.62c-.78.33-1.14.34-.72-.45.75-1.4,1.5-1.79,1.25-1.92-.45-.31-1.54.66-1.72-.14l-.2-.56c0-.27.84-.12.19-.34-.37-.17-.29-.21-.29-.26a3.39,3.39,0,0,1,.13-.66s-.4,0-.51-.22a1.81,1.81,0,0,1,.08-1l.11-.33a16,16,0,0,0,5.19,1.73,1.45,1.45,0,0,0-.2,1.51,3.63,3.63,0,0,1,.41,1.4A31.15,31.15,0,0,0,75.24,49.56Zm3.69-4.65a8.44,8.44,0,0,1-2.69-1.6c-.81-.66-.81-.66-1.76-1.37l.31-.41a3.27,3.27,0,0,1,2.71-.74,2.34,2.34,0,0,1,2,2.65A3.2,3.2,0,0,1,78.93,44.91Z" style="fill: #fff"/>
          <path d="M79.13,11.8l.34-.23.42-.29.31-.21.38-.25.28-.17.32-.2.23-.14.26-.14.18-.09L82,10l.11,0,.11,0h0c.15,0,.21.09.22.19s-.06.35,0,.58a.89.89,0,0,0,.53.7,1.17,1.17,0,0,0,.26.1l.09,0,.19,0h.09a1.09,1.09,0,0,0,.26,0l.08,0a1.4,1.4,0,0,0,.3-.15.12.12,0,0,0,0-.05.8.8,0,0,0,.21-.2.41.41,0,0,0,0-.09,1,1,0,0,0,.16-.35h0a1.12,1.12,0,0,0,0-.21,1.74,1.74,0,0,0-.15-.8,1.52,1.52,0,0,0-.39-.54,2.37,2.37,0,0,0-.54-.34l-.19-.08a2.8,2.8,0,0,0-.5-.12h-.17l-.25,0h-.16l-.29,0-.26,0-.18,0-.35.09-.2.06-.3.11L80.64,9l-.26.12-.17.08L80,9.28l-.13.07-.19.11-.08,0-.15.09,0,0h0a.81.81,0,0,0,.16-.16.6.6,0,0,1,.08-.08l.24-.3a4.1,4.1,0,0,0,.35-3.63A2.27,2.27,0,0,0,79.89,5a.74.74,0,0,0-.13-.12,2.52,2.52,0,0,0-.25-.21l-.16-.08a1.22,1.22,0,0,0-.24-.1l-.18,0-.23,0h0l-.19,0-.16,0-.21.07-.13,0-.2.11a.47.47,0,0,1-.09.06,1.25,1.25,0,0,0-.23.23,1.5,1.5,0,0,0-.19.38.45.45,0,0,0,0,.11,1.07,1.07,0,0,0,0,.25.28.28,0,0,1,0,.09.78.78,0,0,0,.09.27v0a.87.87,0,0,0,.19.23l.07.06a.78.78,0,0,0,.18.11l.08,0a.59.59,0,0,0,.23,0h0a.58.58,0,0,0,.19,0l.1,0a.64.64,0,0,0,.25-.19s.1-.1.15-.15h0A.44.44,0,0,1,79,6.08h0l.08,0,0,0a.46.46,0,0,0,.07.07l0,.06a.52.52,0,0,1,.07.15l0,.08a2.14,2.14,0,0,1,.08.34h0a2,2,0,0,1,0,.59A4.08,4.08,0,0,1,77.83,10L76.57,11h0a1.06,1.06,0,0,0,.3-.46c.07-.17.12-.34.15-.43a2,2,0,0,0-1-2.62,1.81,1.81,0,0,1-.4,1.93,2.94,2.94,0,0,1-1.36.43l-.85.07h0a3.55,3.55,0,0,1,.48.79,2.83,2.83,0,0,1-.14,2.71,2.59,2.59,0,0,1-2.12,1.14h-.06a2.12,2.12,0,0,1-1.88-1.17,2.4,2.4,0,0,1-.3-1.18,5.1,5.1,0,0,0-1.86,3.27c-.14,1.2,1.07,2.13,2.15,2.59a15.82,15.82,0,0,1,6.78-5.33c.32-.12.61-.21.89-.29s.39-.07.58-.1.45-.1.67-.12h0l.13-.1Z" style="fill: #fff"/>
          <path d="M74.25,59.63a29.44,29.44,0,0,0,3.47,2.21,8.88,8.88,0,0,0,.66-1.91,19.53,19.53,0,0,1-3-1.63A8.71,8.71,0,0,1,74.25,59.63Z" style="fill: #fff"/>
          <path d="M85.67,62.72a.71.71,0,0,1-.25.66A1.42,1.42,0,0,0,85.1,65c.14.28.34.41.46.41s.24-.18.31-.45a.27.27,0,0,1,.51,0c.07.27.19.44.31.45s.32-.12.45-.41a1.42,1.42,0,0,0-.32-1.62.74.74,0,0,1-.25-.66,1,1,0,0,1-.9,0Z" style="fill: #fff"/>
          <path d="M87,62.34a.77.77,0,0,1,.66.23,1.51,1.51,0,0,0,1.68.28c.25-.13.37-.3.36-.41s-.18-.23-.45-.31a.26.26,0,0,1-.2-.25.27.27,0,0,1,.2-.26c.27-.07.44-.19.45-.3s-.1-.29-.35-.41a1.49,1.49,0,0,0-1.69.28.77.77,0,0,1-.66.23.94.94,0,0,1,0,.92Z" style="fill: #fff"/>
          <path d="M85,56.52h0a3.22,3.22,0,0,1-1.45,2.8l-.13.09a5.16,5.16,0,0,1-2.62.89,11.72,11.72,0,0,1-.92,2.61l.83.4a17.31,17.31,0,0,1,2.63,1.41A2.89,2.89,0,0,1,84.7,66.6a5.65,5.65,0,0,0,1.4.21h0a6.29,6.29,0,0,0,1.41-.2,2.76,2.76,0,0,1,1.37-1.84,17.07,17.07,0,0,1,2.67-1.44l.82-.4a11.72,11.72,0,0,1-.92-2.61,5.12,5.12,0,0,1-2.61-.89l-.13-.09a3.2,3.2,0,0,1-1.46-2.8,0,0,0,0,1,0,0,10.75,10.75,0,0,0-1.17-.08A9.77,9.77,0,0,0,85,56.52Zm1.69,1.3a1.1,1.1,0,0,1,1,.71,1.93,1.93,0,0,1-.42,2.21.49.49,0,0,0-.12.19s.09,0,.18-.13a2,2,0,0,1,2.28-.36,1,1,0,0,1,.64.93.75.75,0,0,1-.3.51.72.72,0,0,1,.3.5,1,1,0,0,1-.65.94A2,2,0,0,1,87.26,63a.36.36,0,0,0-.2-.11s.06.08.14.17a2,2,0,0,1,.42,2.21,1.07,1.07,0,0,1-1,.7.73.73,0,0,1-.52-.29.75.75,0,0,1-.53.29h-.06a1.09,1.09,0,0,1-.91-.71A1.93,1.93,0,0,1,85,63a.49.49,0,0,0,.12-.19s-.09.05-.18.13a2,2,0,0,1-2.27.36,1,1,0,0,1-.65-.93.8.8,0,0,1,.3-.51.75.75,0,0,1-.3-.51,1,1,0,0,1,.65-.93A2,2,0,0,1,85,60.8a.5.5,0,0,0,.2.11,1.51,1.51,0,0,0-.14-.17,2,2,0,0,1-.42-2.21,1.09,1.09,0,0,1,1-.71.81.81,0,0,1,.52.3A.79.79,0,0,1,86.64,57.82Z" style="fill: #fff"/>
          <path d="M85.86,58.8c-.07-.27-.19-.44-.31-.45s-.32.12-.45.4a1.43,1.43,0,0,0,.32,1.63.71.71,0,0,1,.25.66.9.9,0,0,1,.9,0,.74.74,0,0,1,.25-.66,1.42,1.42,0,0,0,.32-1.62c-.14-.28-.32-.41-.46-.41s-.24.18-.31.45A.27.27,0,0,1,85.86,58.8Z" style="fill: #fff"/>
          <path d="M85.69,61.88a.44.44,0,0,0,.43.43.43.43,0,0,0,.43-.43.43.43,0,0,0-.43-.43A.43.43,0,0,0,85.69,61.88Z" style="fill: #fff"/>
          <path d="M86.82,53.72a4.13,4.13,0,0,1-.72-1.24,4,4,0,0,1-.72,1.24,3.06,3.06,0,0,0-.3.42,3.71,3.71,0,0,0,.28.71,3.4,3.4,0,0,1,.37,1h.74a3.4,3.4,0,0,1,.39-1,3.71,3.71,0,0,0,.26-.69A2.31,2.31,0,0,0,86.82,53.72Z" style="fill: #fff"/>
          <path d="M88.85,54.8l.2,0a1.8,1.8,0,0,1,1.18.43A1.68,1.68,0,0,1,90.65,57a1.65,1.65,0,0,1-.48.67,2.47,2.47,0,0,0,1.12.26,3.69,3.69,0,0,0,.87-.12c.1,0,10.44-2.19,12.19-19.9H88.85Zm5.31-13.27a3.27,3.27,0,0,1,2.71-.74,2.35,2.35,0,0,1,2,2.65,3.28,3.28,0,0,1-.61,1.47,8.55,8.55,0,0,1-2.69-1.6c-.81-.66-.81-.66-1.75-1.37ZM92.82,44l.11-.33a16,16,0,0,0,5.19,1.73,1.43,1.43,0,0,0-.2,1.51,3.63,3.63,0,0,1,.41,1.4,30,30,0,0,0-3.72,1.24c-.79.33-1.15.34-.72-.45.74-1.4,1.5-1.79,1.25-1.92-.46-.31-1.54.66-1.73-.14l-.19-.56c0-.27.83-.12.19-.34-.37-.17-.29-.21-.3-.26a3.85,3.85,0,0,1,.14-.66s-.41,0-.51-.22A1.72,1.72,0,0,1,92.82,44Z" style="fill: #fff"/>
          <path d="M98.68,56.85a10.61,10.61,0,0,0,1.21,1.21,25.79,25.79,0,0,0,3.52-3.92,6.27,6.27,0,0,1-1.5-.93A21.24,21.24,0,0,1,98.68,56.85Z" style="fill: #fff"/>
          <path d="M96.82,58.3a19.53,19.53,0,0,1-3,1.63,9.39,9.39,0,0,0,.65,1.91A28.78,28.78,0,0,0,98,59.63,8.71,8.71,0,0,1,96.82,58.3Z" style="fill: #fff"/>
          <path d="M108.28,29.48c1.57,0,1.81-.64,1.84-1.27a4.63,4.63,0,0,0-.76-3.27,1.3,1.3,0,0,0-1-.42l-.3,0-.54.09c-.53.1-1.15.22-1.73.27a30.05,30.05,0,0,1,1,4.42A8.61,8.61,0,0,0,108.28,29.48Z" style="fill: #fff"/>
          <path d="M103.14,51.16a4.38,4.38,0,0,0,1.63.91,31.74,31.74,0,0,0,2.33-4.83,7.78,7.78,0,0,1-2-.61A28.56,28.56,0,0,1,103.14,51.16Z" style="fill: #fff"/>
          <path d="M105.54,11.84a8.87,8.87,0,0,1,1.61,3.55,5.64,5.64,0,0,0,.2.67c.1.05.25.13.44.25,3.14,1.91,2.67,4.88,2.47,6.15a2.17,2.17,0,0,1,0,.25,3.84,3.84,0,0,1,.53.44c2,2.09,1.81,4.83,1.34,7a9,9,0,0,1,.62,2.45,14.53,14.53,0,0,0,1.12-9.46A16.17,16.17,0,0,0,105.54,11.84Z" style="fill: #fff"/>
          <path d="M109.94,31.67h-.1a12.13,12.13,0,0,1-1.74.14c-.33,0-.68,0-1-.05a40.27,40.27,0,0,1-.1,5.4,6.64,6.64,0,0,0,1.39.19c1,0,2-.35,2.19-3,.15-1.88-.19-2.47-.34-2.63A.33.33,0,0,0,109.94,31.67Z" style="fill: #fff"/>
          <path d="M115.36,21.42c0-.19-.11-.37-.17-.55-.12-.41-.25-.81-.39-1.21-.07-.19-.15-.39-.23-.58-.15-.38-.32-.74-.5-1.1l-.24-.5c-.24-.45-.49-.87-.75-1.28L113,16c-.31-.47-.63-.9-1-1.33l-.31-.36q-.36-.44-.75-.84l-.38-.39c-.25-.24-.51-.48-.76-.7l-.39-.33c-.3-.25-.61-.49-.93-.71l-.23-.17a13.44,13.44,0,0,0-1.18-.73,3.18,3.18,0,0,0-.32-.16c-.29-.15-.57-.29-.86-.42l-.41-.17c-.26-.1-.51-.19-.77-.27s-.26-.09-.39-.12-.55-.13-.82-.18l-.27-.05a6.67,6.67,0,0,0-1-.08H102a5.47,5.47,0,0,0-.72.08l-.28.07a3.38,3.38,0,0,0-.56.2l-.23.1a3,3,0,0,0-.65.46h0a2.9,2.9,0,0,0-.67,1v0a1.27,1.27,0,0,0-.06.18c0,.16-.11.32-.14.47s0,.14,0,.2a2.22,2.22,0,0,0,0,.36v0h0a1,1,0,0,0,0,.23c0,.1,0,.2.06.3a1.18,1.18,0,0,0,.11.19,2,2,0,0,0,.13.25c0,.06.1.1.15.16s.11.13.18.19l.18.12.21.14.2.07.24.08.21,0h0l.22,0h0a1.58,1.58,0,0,0,1.38-.86,1.86,1.86,0,0,0,.23-.88,1.78,1.78,0,0,0-.56-1.26h0l.31.12.39.17.21.1a4.27,4.27,0,0,1,.38.22,5.25,5.25,0,0,1,1.21,1.19,6.31,6.31,0,0,1,.6,1,5.23,5.23,0,0,1,.48,1.63c.21,1.72-1.58,2.94-3,3.38h0a14.49,14.49,0,0,0-6.73-5.5,3.59,3.59,0,0,0-.35-.12c-.16-.05-.32-.11-.49-.15h0a9.7,9.7,0,0,0-1-.2l-.35,0a5.65,5.65,0,0,0-.58,0h-.28c-1.7.07-3.1.73-2.93,2.37h0a1.11,1.11,0,0,0,.86.93h0l.18,0,.12,0h.1a1,1,0,0,0,.33-.14.89.89,0,0,0,.4-.82,1.09,1.09,0,0,0-.47-.83h0a.56.56,0,0,0-.22-.09h-.09l-.16,0h0a4.71,4.71,0,0,1,1.32-.21H92l.52,0,.55,0c.2,0,.39.06.59.1l.55.1c.2.05.39.12.59.18s.37.11.55.18.39.16.58.25l.54.24.57.33c.18.1.35.19.52.3l.56.41.51.37c.18.15.35.32.53.49s.33.28.48.43.34.37.51.56.31.33.45.5.33.43.49.64.28.37.41.56.3.48.45.73.25.4.37.61.27.54.4.81.23.44.34.67.24.6.35.9.2.47.29.72.2.67.31,1,.15.49.22.75.18.76.26,1.15.12.48.16.74c.09.44.14.91.2,1.37,0,.22.08.43.1.66.08.69.13,1.41.16,2.15v0h0c0,.7,0,1.41,0,2.15h0c0,.07,0,.14,0,.21v0c0,.53,0,1.05-.06,1.57,0,.32,0,.63-.07.94s0,.38,0,.57h0c-1.64,19-12.73,21-12.73,21a4.32,4.32,0,0,1-.66.11h-.32l-.26,0-.19,0a3.12,3.12,0,0,1-.44-.09h-.05a3.33,3.33,0,0,1-.42-.17l-.11-.07L89.59,58l-.1-.08a1.14,1.14,0,0,1-.16-.14l-.08-.07-.11-.13,0-.06a1.17,1.17,0,0,1-.08-.13h0l.23,0h.08l.15,0a.49.49,0,0,0,.17-.06l.12-.06a1.36,1.36,0,0,0,.12-.12l.09-.09.09-.15s0-.08,0-.12a1,1,0,0,0,0-.17.59.59,0,0,0,0-.13,1.09,1.09,0,0,0,0-.18.57.57,0,0,0,0-.13,1.46,1.46,0,0,0-.07-.19.42.42,0,0,0,0-.1,1.16,1.16,0,0,0-.2-.25,1.57,1.57,0,0,0-.31-.18l-.1,0a1.65,1.65,0,0,0-.32-.06H89a1.08,1.08,0,0,0-.19,0,1.13,1.13,0,0,0-.18,0l-.08,0a1,1,0,0,0-.26.16l-.09.09a1.26,1.26,0,0,0-.19.25l-.07.12a1.59,1.59,0,0,0-.14.52h0a2.08,2.08,0,0,0,.24,1.15,3.4,3.4,0,0,0,.77.92c.07.06.13.13.21.19a4.86,4.86,0,0,0,2.89.91,11,11,0,0,0,1.23,3.41h0a30.75,30.75,0,0,0-3.94,2A2.19,2.19,0,0,0,88.05,67V67h0a1.28,1.28,0,0,0,.09.48,1.41,1.41,0,0,0,.22.4,1.14,1.14,0,0,0,.75.42h.33l.13,0,.11,0,.12,0,.09,0,.1-.08.07-.06a.39.39,0,0,0,.08-.1l.06-.08s0-.08,0-.12l0-.08a.78.78,0,0,0,0-.16s0,0,0-.08,0-.16,0-.25h0a.71.71,0,0,0-.11-.21s0,0,0,0L90,66.78l-.09,0a.44.44,0,0,0-.16-.06l-.1,0h-.08l-.2,0a.74.74,0,0,0-.57.53h0c0-.5.47-.92,1.25-1.35l.51-.27L91.77,65l1.47-.66c.78-.37,1.64-.78,2.54-1.27s1.83-1,2.79-1.71c5.09-3.54,10.61-9.93,12.3-22.93.09-.67,6.32-5.46,4.87-15.15A18.55,18.55,0,0,0,115.36,21.42Zm-10.81,1.72h0a15.9,15.9,0,0,0-1.68-3.37c.38-.13,2-1.66,2.78-1.89h0a2.06,2.06,0,0,1,.6-.08h0a1.2,1.2,0,0,1,.2,0,1.85,1.85,0,0,1,.41.07,1.45,1.45,0,0,1,.22.09,2.16,2.16,0,0,1,.34.17,1.49,1.49,0,0,1,.2.15,2.18,2.18,0,0,1,.28.25l.18.2a2.66,2.66,0,0,1,.21.33,1.36,1.36,0,0,1,.13.24,4.23,4.23,0,0,1,.21.67,4,4,0,0,1,0,.5,2.26,2.26,0,0,1,0,.26,4,4,0,0,1-.11.82,1.76,1.76,0,0,1-.22.48.64.64,0,0,1-.1.13,1.48,1.48,0,0,1-.24.26l-.14.11a1.65,1.65,0,0,1-.31.2l-.14.07a2.82,2.82,0,0,1-.51.19h0a5.23,5.23,0,0,1-.57.12l-.18,0-.4,0h-.45A6.35,6.35,0,0,1,104.55,23.14Zm.4,1.21h.24l.32,0,.31,0,.5-.06.29,0,.61-.11.58-.1.19,0h0l.39,0h.09l.21,0L109,24l.21.08a1.35,1.35,0,0,1,.26.15,1.33,1.33,0,0,1,.19.14l.23.23c0,.07.11.13.16.21s.12.21.18.33a1.58,1.58,0,0,1,.13.26,4,4,0,0,1,.14.45c0,.1.06.19.09.31a5.32,5.32,0,0,1,.08.61,1.65,1.65,0,0,1,0,.31,10,10,0,0,1,0,1.11,2.2,2.2,0,0,1-.12.62l-.06.13a1.54,1.54,0,0,1-.27.45h0a2.17,2.17,0,0,1-.42.31l-.12.06a2.78,2.78,0,0,1-.51.17h0a5.44,5.44,0,0,1-.6.08h-.49c-.22,0-.44,0-.66-.05l-.27,0c-.29,0-.59-.09-.88-.15h0s-.11-.73-.29-1.69c-.06-.33-.13-.69-.21-1.06s-.11-.47-.17-.7A9.32,9.32,0,0,0,105,24.35ZM94.29,62.62v0a7.77,7.77,0,0,1-1.06-3A18.34,18.34,0,0,0,97,57.46a7.12,7.12,0,0,0,1.91,2.19h0A31.06,31.06,0,0,1,94.29,62.62Zm5.61-3.79a10.52,10.52,0,0,1-2-2.08,20,20,0,0,0,3.9-4.42,6.28,6.28,0,0,0,2.52,1.54h0A26.19,26.19,0,0,1,99.9,58.83ZM105,52.76l-.07,0a5.1,5.1,0,0,1-2.55-1.46h0a27.92,27.92,0,0,0,2.38-5.49l0,0a7.4,7.4,0,0,0,3.07.94h0A31.6,31.6,0,0,1,105,52.76Zm4.75-13.45v.06c0,.08,0,.18,0,.27a43,43,0,0,1-1.42,5.86H108l-.19,0-.26,0-.2,0-.28-.06-.21-.05-.28-.08-.2-.06-.27-.09L106,45l-.25-.09-.13,0-.23-.09-.06,0-.17-.09h0a55.41,55.41,0,0,0,1.11-6h0a1.91,1.91,0,0,0,.46.16l.15,0c.15,0,.31.07.47.09l.1,0L108,39h1.23l.36,0h0s0,0,.06,0l0,0a.24.24,0,0,1,0,.09s0,0,0,0A.92.92,0,0,1,109.78,39.31Zm1.35-4.85h0a6.2,6.2,0,0,1-.11.83,1.43,1.43,0,0,1,0,.22c0,.19-.09.37-.14.53a.88.88,0,0,1,0,.15,4.61,4.61,0,0,1-.23.54.86.86,0,0,0-.07.1,2,2,0,0,1-.24.33l-.09.1a1.75,1.75,0,0,1-.33.28l0,0a2.87,2.87,0,0,1-.39.2l-.12,0-.34.08-.11,0a3.57,3.57,0,0,1-.46,0h-.06a5.8,5.8,0,0,1-.91-.08l-.08,0a9.13,9.13,0,0,1-1-.22h0a32.26,32.26,0,0,0,.06-6.51,9.44,9.44,0,0,0,1,.11h.29l.43,0h.1l.57,0,.25,0c.24,0,.48-.05.71-.09H110l.16,0,.17.07.14.08.14.14a1.47,1.47,0,0,1,.1.13,1,1,0,0,1,.11.21.67.67,0,0,1,.08.17c0,.08,0,.18.08.27a1.6,1.6,0,0,1,0,.21c0,.11,0,.23.05.36l0,.23c0,.14,0,.3,0,.46s0,.14,0,.22C111.16,33.93,111.15,34.18,111.13,34.46Zm.85.7h0a7.89,7.89,0,0,0-.49-4.91c.61-2.76.5-5-1.16-6.7h0a4,4,0,0,0-.69-.53c-.18-.36,1-3.19-1-5.34a5.38,5.38,0,0,0-1.11-.88,4.71,4.71,0,0,0-.51-.27.23.23,0,0,1-.07-.07,6.08,6.08,0,0,1-.45-1.4l-.06-.21a10.81,10.81,0,0,0-.46-1.26l-.19-.39c-.06-.11-.13-.22-.19-.34a4.89,4.89,0,0,0-1.1-1.27,6.62,6.62,0,0,0-1.88-1h0a3,3,0,0,1,.43,0h.12l.32,0,.37.05.35.08.41.12L105,11l.44.18.39.18.45.23.41.23.47.29.41.28.47.35.42.32.47.41.4.36.46.46.4.4.45.52.37.44.42.56.35.48c.14.2.27.41.4.62l.31.51c.13.22.24.45.36.69s.19.34.27.52.23.51.33.77.15.34.22.52.2.59.3.9c0,.15.1.3.14.46.13.46.24.94.33,1.43C115.53,29.32,113.43,32.67,112,35.16Z" style="fill: #fff"/>
          <path d="M108,21.44a2.66,2.66,0,0,0-.38-2.33,1.79,1.79,0,0,0-1.41-.73,1.74,1.74,0,0,0-.45.06,7.68,7.68,0,0,0-1.7,1.16c-.17.13-.31.25-.44.34A16.46,16.46,0,0,1,105,22.6a3.85,3.85,0,0,0,.48,0C106,22.62,107.75,22.54,108,21.44Z" style="fill: #fff"/>
          <path d="M106.71,39.39c-.12.91-.39,2.59-.92,4.93a10,10,0,0,0,2.1.58,43.79,43.79,0,0,0,1.26-5.31h-.43A9.6,9.6,0,0,1,106.71,39.39Z" style="fill: #fff"/>
          <path d="M86.53,67.36h0l-.42,0h0l-.41,0h0a4,4,0,0,1-.49,1.45,3.85,3.85,0,0,0-.31.83,3.92,3.92,0,0,0,.36.5,4.68,4.68,0,0,1,.87,1.53A4.67,4.67,0,0,1,87,70.14a4.67,4.67,0,0,0,.37-.5,3.85,3.85,0,0,0-.31-.83A3.86,3.86,0,0,1,86.53,67.36Z" style="fill: #fff"/>
          <path d="M83,65.24a31.46,31.46,0,0,0-3.94-2h0a11,11,0,0,0,1.23-3.41,4.91,4.91,0,0,0,2.89-.91c.08-.06.13-.13.21-.19a3.18,3.18,0,0,0,.76-.92,2.19,2.19,0,0,0,.25-1.15,1.85,1.85,0,0,0-.15-.53.75.75,0,0,0-.07-.12.94.94,0,0,0-.18-.25.43.43,0,0,0-.1-.09,1,1,0,0,0-.26-.16l-.07,0a1.13,1.13,0,0,0-.18,0l-.19,0H83.1a1.8,1.8,0,0,0-.32.06l-.09,0a1.4,1.4,0,0,0-.32.18,1.16,1.16,0,0,0-.2.25.42.42,0,0,1,0,.1,1.39,1.39,0,0,0-.06.19s0,.09,0,.13,0,.12,0,.18a.59.59,0,0,1,0,.13c0,.06,0,.11,0,.17l.06.12a1.09,1.09,0,0,0,.08.15l.09.1.13.11.12.06a.44.44,0,0,0,.16.06l.15,0H83l.23,0h0a.51.51,0,0,1-.08.13l0,.06-.12.13-.07.07-.16.14-.11.08-.22.14-.12.07a3.17,3.17,0,0,1-.41.17h-.05a3,3,0,0,1-.45.09l-.18,0-.26,0h-.32a4.13,4.13,0,0,1-.66-.11s-11.1-2-12.73-21c0-.19,0-.38,0-.57l-.06-.94c0-.52,0-1-.06-1.57a1.93,1.93,0,0,1,0-.24h0c0-.74,0-1.45,0-2.15v0c0-.74.09-1.46.16-2.15,0-.24.08-.47.11-.71.06-.44.11-.89.19-1.32s.12-.55.18-.82.15-.73.24-1.07.17-.55.25-.83.18-.63.29-.93.2-.52.3-.78.22-.57.34-.84.24-.48.36-.72.24-.52.37-.76.27-.44.41-.66.27-.46.41-.68.3-.4.45-.6.29-.41.45-.6.32-.35.48-.53l.48-.53.51-.46c.17-.15.33-.31.51-.46s.35-.26.52-.38a6.08,6.08,0,0,1,.54-.39c.18-.12.36-.22.54-.32s.37-.23.55-.32l.56-.25c.19-.08.37-.17.57-.24s.37-.12.55-.18l.58-.18.56-.1a5.86,5.86,0,0,1,.58-.1l.56,0,.51,0h.14a4.76,4.76,0,0,1,1.32.21h0a1,1,0,0,0-.17,0h-.09a.73.73,0,0,0-.22.09h0a1.1,1.1,0,0,0-.48.83.91.91,0,0,0,.4.82,1.06,1.06,0,0,0,.33.14h.1l.12,0,.2,0h0a1.11,1.11,0,0,0,.85-.93h0c.17-1.64-1.23-2.3-2.93-2.37h-.27a5.85,5.85,0,0,0-.59,0l-.35,0a9.09,9.09,0,0,0-1,.2h0c-.16,0-.32.1-.48.15s-.24.07-.36.12a14.44,14.44,0,0,0-6.72,5.5h0l-.53-.2c-1.28-.56-2.63-1.67-2.45-3.18A6,6,0,0,1,68,12.76a5.09,5.09,0,0,1,1.22-1.19l.26-.16a8.31,8.31,0,0,1,.87-.39l.15-.06h0a1.77,1.77,0,0,0-.57,1.26,1.86,1.86,0,0,0,.23.88,1.59,1.59,0,0,0,1.39.86h0l.22,0h0l.2,0,.24-.08.2-.07c.08,0,.15-.1.22-.14h0l.18-.12h0l.18-.2h0l.14-.15a1.57,1.57,0,0,0,.14-.25c0-.07.07-.12.1-.19a1.73,1.73,0,0,0,.07-.31c0-.07,0-.14.05-.22h0a2.61,2.61,0,0,0,0-.39c0-.07,0-.13,0-.2a3,3,0,0,0-.19-.65v0a2.47,2.47,0,0,0-.29-.53,3.91,3.91,0,0,0-.37-.44h0A3.65,3.65,0,0,0,72,9.48l-.23-.1a3.49,3.49,0,0,0-.57-.2l-.28-.07A5.47,5.47,0,0,0,70.2,9H70a6.43,6.43,0,0,0-1,.08l-.27.05a6.51,6.51,0,0,0-.83.18l-.39.12-.77.27-.41.17-.86.42-.32.16c-.39.22-.79.46-1.18.73l-.22.17c-.32.22-.63.46-.94.71l-.38.33c-.26.22-.51.46-.76.7l-.39.39q-.37.4-.75.84l-.31.36c-.33.43-.66.86-1,1.33,0,.05-.07.12-.11.17-.26.41-.52.84-.75,1.29-.09.16-.17.33-.25.5-.18.36-.34.72-.5,1.1-.08.19-.15.39-.23.59-.14.39-.27.79-.39,1.19-.05.19-.11.37-.16.56a18.57,18.57,0,0,0-.39,1.86h0a19.43,19.43,0,0,0-.21,3.41c.23,7.42,5,11.15,5.09,11.74A39.37,39.37,0,0,0,65.41,52a26.7,26.7,0,0,0,1.66,2.75A26.07,26.07,0,0,0,70.76,59a26.7,26.7,0,0,0,2.89,2.32c.63.44,1.26.84,1.88,1.2l.91.51c.6.33,1.18.62,1.73.89l.81.38,1.24.56.43.2c.3.13.58.26.83.39s.69.35,1,.51a3.9,3.9,0,0,1,.52.37,1.17,1.17,0,0,1,.48.83h0a1.85,1.85,0,0,0-.11-.22.81.81,0,0,0-.47-.31l-.19,0h-.08l-.11,0a.44.44,0,0,0-.16.06l-.09,0a1.36,1.36,0,0,0-.12.12l-.06,0a.62.62,0,0,0-.1.2h0a.71.71,0,0,0,0,.24.28.28,0,0,0,0,.09.76.76,0,0,0,0,.15s0,0,0,.08a.43.43,0,0,0,0,.12.22.22,0,0,0,0,.08l.08.1.07.06.11.08.09,0,.12,0,.1,0,.14,0h.33a1.12,1.12,0,0,0,.74-.42,1.44,1.44,0,0,0,.23-.4,1.86,1.86,0,0,0,.09-.48h0s0-.06,0-.09A2.2,2.2,0,0,0,83,65.24Zm-17-35.42h0c-.29.06-.58.11-.88.15l-.26,0c-.23,0-.45,0-.66.05h-.5A5.44,5.44,0,0,1,63,30h0a2.64,2.64,0,0,1-.52-.17l-.11-.06a1.63,1.63,0,0,1-.42-.31h0a1.37,1.37,0,0,1-.28-.45.5.5,0,0,1,0-.13,2.2,2.2,0,0,1-.12-.62h0a10.12,10.12,0,0,1,0-1.11c0-.11,0-.21,0-.31a4.94,4.94,0,0,1,.09-.61,3,3,0,0,1,.08-.32c0-.15.09-.31.14-.44s.09-.18.13-.26a2.59,2.59,0,0,1,.19-.33,1.66,1.66,0,0,1,.16-.21,2.5,2.5,0,0,1,.23-.23l.18-.14a1.74,1.74,0,0,1,.26-.15l.21-.08.29-.07.22,0h.08a2.56,2.56,0,0,1,.39,0h0l.16,0,.62.11.61.11.28,0,.51.06.3,0,.32,0h.25A24.88,24.88,0,0,0,65.93,29.82Zm3.43-10a15.8,15.8,0,0,0-1.69,3.37h0a6.52,6.52,0,0,1-.8.06h-.45l-.4,0-.18,0a5.05,5.05,0,0,1-.56-.12h0a3.24,3.24,0,0,1-.52-.19l-.14-.07a2,2,0,0,1-.31-.2l-.14-.11a1.72,1.72,0,0,1-.55-.87,3.46,3.46,0,0,1-.12-.82,2.28,2.28,0,0,1,0-.26,1.88,1.88,0,0,1,.12-.77c0-.14.08-.27.13-.4s.09-.17.13-.25a3.62,3.62,0,0,1,.22-.32,1.63,1.63,0,0,1,.17-.2,2.18,2.18,0,0,1,.28-.25,1.59,1.59,0,0,1,.21-.15,2.06,2.06,0,0,1,.33-.17l.22-.09a2,2,0,0,1,.41-.07,1.38,1.38,0,0,1,.2,0h0a2,2,0,0,1,.59.08h0C67.41,18.11,69,19.64,69.36,19.77ZM60.73,30.25A8.41,8.41,0,0,0,60,33.9a5.11,5.11,0,0,0,.19,1.26h0a15.78,15.78,0,0,1-2.74-8.86,19.35,19.35,0,0,1,.32-3.22h0c.09-.48.2-1,.33-1.42,0-.16.1-.31.15-.47s.19-.6.29-.89.15-.35.22-.53.21-.51.33-.76l.27-.53.36-.68c.11-.18.22-.34.32-.51s.26-.42.39-.61l.36-.49c.14-.19.27-.38.41-.56l.39-.45c.14-.17.28-.34.43-.5l.41-.42.45-.44.41-.38.46-.39.43-.33a5,5,0,0,1,.46-.34l.42-.29.46-.28.42-.24.44-.23.4-.19.43-.17.38-.13.41-.12.35-.08.38-.05.32,0h.11a3,3,0,0,1,.43,0h0a6.77,6.77,0,0,0-1.88,1c-2,1.59-2.08,4.77-2.52,4.94,0,0-.2.09-.51.27A4.53,4.53,0,0,0,62.39,21c0,.88.21,1.59.2,1.89a.27.27,0,0,1,0,.11,4,4,0,0,0-.69.53,5.35,5.35,0,0,0-1.49,3.82,12.23,12.23,0,0,0,.34,2.88Zm1.65,7.29a2.13,2.13,0,0,1-.33-.28l-.09-.1q-.12-.15-.24-.33l-.06-.1a3.37,3.37,0,0,1-.24-.54s0-.1-.05-.15-.1-.34-.14-.53,0-.14,0-.22c0-.25-.08-.53-.11-.83h0q0-.41,0-.78v-.23c0-.16,0-.31,0-.45s0-.16,0-.24,0-.24,0-.35l.06-.21a2.13,2.13,0,0,1,.08-.27c0-.07,0-.12.07-.18s.07-.14.11-.2l.11-.13a.93.93,0,0,1,.14-.14l.13-.08.17-.07.16,0h.31q.35.06.72.09l.25,0,.57,0h.09l.44,0h.28a9.13,9.13,0,0,0,1-.11,19.42,19.42,0,0,0-.11,2.45c0,1,0,2.35.18,4.06h0a9.13,9.13,0,0,1-1,.22l-.09,0a5.67,5.67,0,0,1-.9.08h-.06a3.42,3.42,0,0,1-.46,0l-.11,0-.34-.08-.12,0a3,3,0,0,1-.4-.2Zm1.63,8H63.9a44.57,44.57,0,0,1-1.42-5.86c0-.09,0-.19,0-.27a.13.13,0,0,0,0-.06.85.85,0,0,1,0-.16s0,0,0,0,0-.07,0-.09l.05,0a.06.06,0,0,1,0,0h0L63,39h1.22l.6-.06.1,0c.16,0,.32-.06.46-.09l.15,0a2.16,2.16,0,0,0,.47-.16h0a52.66,52.66,0,0,0,1.11,6h0l-.17.09-.07,0-.22.09-.13,0-.25.09-.18.06-.27.09-.2.06-.28.08-.21.05-.28.06-.21,0-.26,0-.19,0Zm3.17,7.26a32.22,32.22,0,0,1-2.86-6,7.4,7.4,0,0,0,3.07-.94s0,0,0,0a27.85,27.85,0,0,0,2.37,5.49h0a5.07,5.07,0,0,1-2.54,1.46S67.21,52.75,67.18,52.76Zm.73,1.11h0a6.35,6.35,0,0,0,2.52-1.54,19.73,19.73,0,0,0,3.9,4.42,10.52,10.52,0,0,1-2,2.08A26.19,26.19,0,0,1,67.91,53.87ZM78,62.6v0a31.06,31.06,0,0,1-4.62-3h0a7.12,7.12,0,0,0,1.91-2.19A18.34,18.34,0,0,0,79,59.56,7.77,7.77,0,0,1,78,62.6Z" style="fill: #fff"/>
          <path d="M88.85,16h0a8.2,8.2,0,0,1-2.74-1.55,8.26,8.26,0,0,1-2.74,1.56v16.4H67.63c0,.57,0,1.09,0,1.59v.23c0,.53,0,1,.06,1.55,0,.26,0,.5,0,.74v.2c0,.19,0,.38,0,.56v0c0,.2,0,.38.06.57,2.75,0,15.51,0,15.51,0V54.8A1.74,1.74,0,0,1,84.8,56l.34-.05a2.63,2.63,0,0,0-.3-.78,5.22,5.22,0,0,1-.34-.91c0-.2,0-.38.44-.86a4.45,4.45,0,0,0,.88-1.93l0-.09h.52l0,.09a4.46,4.46,0,0,0,.88,1.92c.4.48.47.68.45.83a4.35,4.35,0,0,1-.34.93h0a3.4,3.4,0,0,0-.31.8l.36.06a1.71,1.71,0,0,1,1.43-1.16h0V37.94h15.5c0-.19,0-.37.06-.57v0c0-.18,0-.37,0-.56v-.2c0-.24,0-.48.06-.74,0-.5,0-1,.06-1.55V34c0-.48,0-1,0-1.57H88.85Z" style="fill: url(#Sfumatura_senza_nome_34)"/>
          <path d="M77.5,20.9a3.31,3.31,0,0,0-2.71.75l-.31.41c1,.71,1,.71,1.76,1.36A8.52,8.52,0,0,0,78.93,25a3.2,3.2,0,0,0,.6-1.47A2.35,2.35,0,0,0,77.5,20.9Z"/>
          <path d="M78.75,25.53a16,16,0,0,1-5.19-1.73l-.11.33a1.81,1.81,0,0,0-.08,1c.11.22.51.22.51.22a3.39,3.39,0,0,0-.13.66s-.08.09.29.26c.65.22-.22.07-.19.34l.2.56c.18.8,1.27-.17,1.72.14.25.13-.5.52-1.25,1.92-.42.79-.06.78.72.45A31.15,31.15,0,0,1,79,28.44,3.71,3.71,0,0,0,78.55,27,1.43,1.43,0,0,1,78.75,25.53Z"/>
          <path d="M98.29,25a3.28,3.28,0,0,0,.61-1.47,2.36,2.36,0,0,0-2-2.66,3.31,3.31,0,0,0-2.71.75l-.31.41c.94.71.94.71,1.75,1.36A8.64,8.64,0,0,0,98.29,25Z"/>
          <path d="M93.25,25.35a3.85,3.85,0,0,0-.14.66s-.07.09.3.26c.64.22-.22.07-.19.34l.19.56c.19.8,1.27-.17,1.73.14.25.13-.51.52-1.25,1.92-.43.79-.07.78.72.45a30,30,0,0,1,3.72-1.24A3.71,3.71,0,0,0,97.92,27a1.41,1.41,0,0,1,.2-1.5,16,16,0,0,1-5.19-1.73l-.11.33a1.72,1.72,0,0,0-.08,1C92.84,25.35,93.25,25.35,93.25,25.35Z"/>
          <path d="M77.5,40.79a3.27,3.27,0,0,0-2.71.74l-.31.41c1,.71,1,.71,1.76,1.37a8.44,8.44,0,0,0,2.69,1.6,3.2,3.2,0,0,0,.6-1.47A2.34,2.34,0,0,0,77.5,40.79Z"/>
          <path d="M78.75,45.41a16,16,0,0,1-5.19-1.73l-.11.33a1.81,1.81,0,0,0-.08,1c.11.23.51.22.51.22a3.39,3.39,0,0,0-.13.66s-.08.09.29.26c.65.22-.22.07-.19.34l.2.56c.18.8,1.27-.17,1.72.14.25.13-.5.52-1.25,1.92-.42.79-.06.78.72.45A31.15,31.15,0,0,1,79,48.32a3.63,3.63,0,0,0-.41-1.4A1.45,1.45,0,0,1,78.75,45.41Z"/>
          <path d="M98.29,44.91a3.28,3.28,0,0,0,.61-1.47,2.35,2.35,0,0,0-2-2.65,3.27,3.27,0,0,0-2.71.74l-.31.41c.94.71.94.71,1.75,1.37A8.55,8.55,0,0,0,98.29,44.91Z"/>
          <path d="M93.25,45.23a3.85,3.85,0,0,0-.14.66s-.07.09.3.26c.64.22-.22.07-.19.34l.19.56c.19.8,1.27-.17,1.73.14.25.13-.51.52-1.25,1.92-.43.79-.07.78.72.45a30,30,0,0,1,3.72-1.24,3.63,3.63,0,0,0-.41-1.4,1.43,1.43,0,0,1,.2-1.51,16,16,0,0,1-5.19-1.73l-.11.33a1.72,1.72,0,0,0-.08,1C92.84,45.24,93.25,45.23,93.25,45.23Z"/>
          <g>
            <path d="M87.06,62.85a.36.36,0,0,1,.2.11,2,2,0,0,0,2.27.36,1,1,0,0,0,.65-.94.72.72,0,0,0-.3-.5.75.75,0,0,0,.3-.51,1,1,0,0,0-.64-.93,2,2,0,0,0-2.28.36c-.09.08-.16.1-.18.13a.49.49,0,0,1,.12-.19,1.93,1.93,0,0,0,.42-2.21,1.1,1.1,0,0,0-1-.71.79.79,0,0,0-.52.3.81.81,0,0,0-.52-.3,1.09,1.09,0,0,0-1,.71A2,2,0,0,0,85,60.74a1.51,1.51,0,0,1,.14.17.5.5,0,0,1-.2-.11,2,2,0,0,0-2.27-.36,1,1,0,0,0-.65.93.75.75,0,0,0,.3.51.8.8,0,0,0-.3.51,1,1,0,0,0,.65.93A2,2,0,0,0,85,63c.09-.08.16-.1.18-.13A.49.49,0,0,1,85,63a1.93,1.93,0,0,0-.41,2.21,1.09,1.09,0,0,0,.91.71h.06a.75.75,0,0,0,.53-.29.73.73,0,0,0,.52.29,1.07,1.07,0,0,0,1-.7A2,2,0,0,0,87.2,63C87.12,62.93,87.09,62.87,87.06,62.85Zm.55-1.66a1.49,1.49,0,0,1,1.69-.28c.25.12.36.3.35.41s-.18.23-.45.3a.27.27,0,0,0-.2.26.26.26,0,0,0,.2.25c.27.08.44.19.45.31s-.11.28-.36.41a1.51,1.51,0,0,1-1.68-.28.77.77,0,0,0-.66-.23.94.94,0,0,0,0-.92A.77.77,0,0,0,87.61,61.19ZM85.1,58.75c.13-.28.35-.42.45-.4s.24.18.31.45a.27.27,0,0,0,.51,0c.07-.27.19-.44.31-.45s.32.13.46.41a1.42,1.42,0,0,1-.32,1.62.74.74,0,0,0-.25.66.9.9,0,0,0-.9,0,.71.71,0,0,0-.25-.66A1.43,1.43,0,0,1,85.1,58.75Zm1.45,3.13a.43.43,0,0,1-.43.43.44.44,0,0,1-.43-.43.43.43,0,0,1,.43-.43A.43.43,0,0,1,86.55,61.88Zm-1.92.69a1.5,1.5,0,0,1-1.68.28c-.25-.13-.37-.3-.36-.41s.18-.23.45-.3a.28.28,0,0,0,.2-.26.26.26,0,0,0-.2-.25c-.27-.08-.44-.19-.45-.31s.11-.28.36-.41a1.51,1.51,0,0,1,1.68.28.77.77,0,0,0,.66.23.94.94,0,0,0,0,.92l-.1,0A.84.84,0,0,0,84.63,62.57ZM87.14,65c-.13.29-.33.43-.45.41s-.24-.18-.31-.45a.27.27,0,0,0-.51,0c-.07.27-.19.44-.31.45s-.32-.13-.46-.41a1.42,1.42,0,0,1,.32-1.62.71.71,0,0,0,.25-.66,1,1,0,0,0,.9,0,.74.74,0,0,0,.25.66A1.42,1.42,0,0,1,87.14,65Z"/>
            <path d="M97,57.46a18.34,18.34,0,0,1-3.78,2.1,7.77,7.77,0,0,0,1.06,3v0a31.06,31.06,0,0,0,4.62-3h0A7.12,7.12,0,0,1,97,57.46Zm-2.5,4.38a9.39,9.39,0,0,1-.65-1.91,19.53,19.53,0,0,0,3-1.63A8.71,8.71,0,0,0,98,59.63,28.78,28.78,0,0,1,94.5,61.84Z"/>
            <path d="M101.8,52.33a20,20,0,0,1-3.9,4.42,10.52,10.52,0,0,0,2,2.08,26.19,26.19,0,0,0,4.42-5h0A6.28,6.28,0,0,1,101.8,52.33Zm-1.91,5.73a10.61,10.61,0,0,1-1.21-1.21,21.24,21.24,0,0,0,3.23-3.64,6.27,6.27,0,0,0,1.5.93A25.79,25.79,0,0,1,99.89,58.06Z"/>
            <path d="M105.79,27.07c.08.37.15.73.21,1.06.18,1,.29,1.69.29,1.69h0c.29.06.59.11.88.15l.27,0c.22,0,.44,0,.66.05h.49a5.44,5.44,0,0,0,.6-.08h0a2.78,2.78,0,0,0,.51-.17l.12-.06a2.17,2.17,0,0,0,.42-.31h0a1.54,1.54,0,0,0,.27-.45l.06-.13a2.2,2.2,0,0,0,.12-.62,10,10,0,0,0,0-1.11,1.65,1.65,0,0,0,0-.31,5.32,5.32,0,0,0-.08-.61c0-.12-.06-.21-.09-.31a4,4,0,0,0-.14-.45,1.58,1.58,0,0,0-.13-.26q-.09-.18-.18-.33c0-.08-.11-.14-.16-.21l-.23-.23a1.33,1.33,0,0,0-.19-.14,1.35,1.35,0,0,0-.26-.15L109,24l-.29-.07-.21,0h-.09L108,24h0l-.19,0-.58.1-.61.11-.29,0-.5.06-.31,0-.32,0H105a9.32,9.32,0,0,1,.67,2C105.68,26.6,105.73,26.83,105.79,27.07Zm1.75-2.43.54-.09.3,0a1.3,1.3,0,0,1,1,.42,4.63,4.63,0,0,1,.76,3.27c0,.63-.27,1.27-1.84,1.27a8.61,8.61,0,0,1-1.48-.15,30.05,30.05,0,0,0-1-4.42C106.39,24.86,107,24.74,107.54,24.64Z"/>
            <path d="M105.45,23.2h.34l.4,0,.18,0a5.23,5.23,0,0,0,.57-.12h0a2.82,2.82,0,0,0,.51-.19l.14-.07a1.65,1.65,0,0,0,.31-.2l.14-.11a1.48,1.48,0,0,0,.24-.26.64.64,0,0,0,.1-.13,1.76,1.76,0,0,0,.22-.48,4,4,0,0,0,.11-.82,2.26,2.26,0,0,0,0-.26,4,4,0,0,0,0-.5,4.23,4.23,0,0,0-.21-.67,1.36,1.36,0,0,0-.13-.24,2.66,2.66,0,0,0-.21-.33l-.18-.2a2.18,2.18,0,0,0-.28-.25,1.49,1.49,0,0,0-.2-.15,2.16,2.16,0,0,0-.34-.17,1.45,1.45,0,0,0-.22-.09,1.85,1.85,0,0,0-.41-.07,1.2,1.2,0,0,0-.2,0h0a2.06,2.06,0,0,0-.6.08h0c-.83.23-2.4,1.76-2.78,1.89a15.9,15.9,0,0,1,1.68,3.37h0a6.35,6.35,0,0,0,.79.06Zm-1.8-3.26c.13-.09.27-.21.44-.34a7.68,7.68,0,0,1,1.7-1.16,1.74,1.74,0,0,1,.45-.06,1.79,1.79,0,0,1,1.41.73,2.66,2.66,0,0,1,.38,2.33c-.28,1.1-2,1.18-2.58,1.18a3.85,3.85,0,0,1-.48,0A16.46,16.46,0,0,0,103.65,19.94Z"/>
            <path d="M109.75,39l0,0s0,0-.06,0h0l-.36,0H108l-.59-.06-.1,0c-.16,0-.32-.06-.47-.09l-.15,0a1.91,1.91,0,0,1-.46-.16h0a55.41,55.41,0,0,1-1.11,6h0l.17.09.06,0,.23.09.13,0L106,45l.18.06.27.09.2.06.28.08.21.05.28.06.2,0,.26,0,.19,0h.28a43,43,0,0,0,1.42-5.86c0-.09,0-.19,0-.27v-.06a.92.92,0,0,0,0-.16s0,0,0,0A.24.24,0,0,0,109.75,39Zm-1.86,5.89a10,10,0,0,1-2.1-.58c.53-2.34.8-4,.92-4.93a9.6,9.6,0,0,0,2,.21h.43A43.79,43.79,0,0,1,107.89,44.9Z"/>
            <path d="M104.82,45.82l0,0a27.92,27.92,0,0,1-2.38,5.49h0A5.1,5.1,0,0,0,105,52.73l.07,0a31.6,31.6,0,0,0,2.86-6h0A7.4,7.4,0,0,1,104.82,45.82Zm0,6.25a4.38,4.38,0,0,1-1.63-.91,28.56,28.56,0,0,0,2-4.53,7.78,7.78,0,0,0,2,.61A31.74,31.74,0,0,1,104.77,52.07Z"/>
            <path d="M111.15,33l0-.23c0-.13,0-.25-.05-.36a1.6,1.6,0,0,0,0-.21c0-.09,0-.19-.08-.27a.67.67,0,0,0-.08-.17,1,1,0,0,0-.11-.21,1.47,1.47,0,0,0-.1-.13l-.14-.14-.14-.08-.17-.07-.16,0h-.31c-.23,0-.47.07-.71.09l-.25,0-.57,0h-.1l-.43,0h-.29a9.44,9.44,0,0,1-1-.11,32.26,32.26,0,0,1-.06,6.51h0a9.13,9.13,0,0,0,1,.22l.08,0a5.8,5.8,0,0,0,.91.08h.06a3.57,3.57,0,0,0,.46,0l.11,0,.34-.08.12,0a2.87,2.87,0,0,0,.39-.2l0,0a1.75,1.75,0,0,0,.33-.28l.09-.1a2,2,0,0,0,.24-.33.86.86,0,0,1,.07-.1,4.61,4.61,0,0,0,.23-.54.88.88,0,0,0,0-.15c0-.16.1-.34.14-.53a1.43,1.43,0,0,0,0-.22,6.2,6.2,0,0,0,.11-.83h0c0-.28,0-.53,0-.78,0-.08,0-.15,0-.22S111.16,33.14,111.15,33Zm-.6,1.41c-.2,2.6-1.22,3-2.19,3a6.64,6.64,0,0,1-1.39-.19,40.27,40.27,0,0,0,.1-5.4c.35,0,.7.05,1,.05a12.13,12.13,0,0,0,1.74-.14h.1a.33.33,0,0,1,.27.11C110.36,31.94,110.7,32.53,110.55,34.41Z"/>
            <path d="M114.07,21.65c0-.16-.1-.31-.14-.46-.1-.31-.19-.61-.3-.9s-.15-.35-.22-.52-.21-.52-.33-.77-.18-.35-.27-.52-.23-.47-.36-.69l-.31-.51c-.13-.21-.26-.42-.4-.62l-.35-.48-.42-.56-.37-.44-.45-.52-.4-.4-.46-.46-.4-.36-.47-.41-.42-.32-.47-.35-.41-.28-.47-.29-.41-.23-.45-.23-.39-.18L105,11l-.38-.13-.41-.12-.35-.08-.37-.05-.32,0H103a3,3,0,0,0-.43,0h0a6.62,6.62,0,0,1,1.88,1,4.89,4.89,0,0,1,1.1,1.27c.06.12.13.23.19.34l.19.39a10.81,10.81,0,0,1,.46,1.26l.06.21a6.08,6.08,0,0,0,.45,1.4.23.23,0,0,0,.07.07,4.71,4.71,0,0,1,.51.27,5.38,5.38,0,0,1,1.11.88c2.08,2.15.86,5,1,5.34a4,4,0,0,1,.69.53h0c1.66,1.71,1.77,3.94,1.16,6.7a7.89,7.89,0,0,1,.49,4.91h0c1.45-2.49,3.55-5.84,2.42-12.08C114.31,22.59,114.2,22.11,114.07,21.65Zm-1.36,11a9,9,0,0,0-.62-2.45c.47-2.21.7-5-1.34-7a3.84,3.84,0,0,0-.53-.44,2.17,2.17,0,0,0,0-.25c.2-1.27.67-4.24-2.47-6.15-.19-.12-.34-.2-.44-.25a5.64,5.64,0,0,1-.2-.67,8.87,8.87,0,0,0-1.61-3.55,16.17,16.17,0,0,1,8.29,11.34A14.53,14.53,0,0,1,112.71,32.64Z"/>
            <path d="M116.32,23.2a18.61,18.61,0,0,0-5.69-10.85c-2.6-2.42-5.81-3.92-8.37-3.92a4.47,4.47,0,0,0-2.87.92h-.12A6.07,6.07,0,0,1,97,9a1.21,1.21,0,0,1-.23-1.28l.44-1.16L96,6.92a2.45,2.45,0,0,0-1.56,2.45,3.12,3.12,0,0,1-1.15-2.45v0a1.31,1.31,0,0,0,.77.25,1.54,1.54,0,0,0,1.34-.83,1.6,1.6,0,0,0-.22-1.7,2.08,2.08,0,0,0-1.67-.8,2.38,2.38,0,0,0-2.08,1.36,4.72,4.72,0,0,0-.17,3.06A5.08,5.08,0,0,0,90,8,4.51,4.51,0,0,0,88.76,5.6a1.07,1.07,0,0,1-.28-.95,2.51,2.51,0,0,0-.85-2,6.6,6.6,0,0,1-.73-1A3.07,3.07,0,0,1,86.55.37.44.44,0,0,0,86.11,0a.45.45,0,0,0-.44.37,3.11,3.11,0,0,1-.36,1.33,6.55,6.55,0,0,1-.72.94,2.52,2.52,0,0,0-.84,2,1.05,1.05,0,0,1-.3.94A4.58,4.58,0,0,0,82.23,8a5.55,5.55,0,0,0-1.31.28,4.72,4.72,0,0,0-.18-3.06,2.36,2.36,0,0,0-2.07-1.36,2.1,2.1,0,0,0-1.68.8,1.6,1.6,0,0,0-.21,1.7,1.53,1.53,0,0,0,1.33.83,1.29,1.29,0,0,0,.77-.25v0a3.17,3.17,0,0,1-1.17,2.45,2.44,2.44,0,0,0-1.55-2.45L75,6.5l.47,1.19A1.2,1.2,0,0,1,75.2,9,6.05,6.05,0,0,1,73,9.34h-.13A4.45,4.45,0,0,0,70,8.43c-5,0-12.69,5.62-14.05,14.77A17.65,17.65,0,0,0,60.32,38c.18.21.39.45.46.56C63.32,57.93,74.49,63,79.86,65.38c.71.32,1.44.65,2,1a1.22,1.22,0,0,0-.47.67,1.48,1.48,0,0,0,.22,1.3,1.68,1.68,0,0,0,1.35.63l.21,0a1.8,1.8,0,0,0,1.56-1.7l.37.07a3.31,3.31,0,0,1-.43,1.26,5.3,5.3,0,0,0-.38,1c0,.17.06.38.51.92a5.17,5.17,0,0,1,1,2.26l0,.08h.52l0-.08a5.17,5.17,0,0,1,1-2.26c.46-.54.53-.75.51-.92a4.27,4.27,0,0,0-.38-1,3.3,3.3,0,0,1-.42-1.26l.36-.07a1.81,1.81,0,0,0,1.57,1.7l.2,0a1.65,1.65,0,0,0,1.35-.63,1.45,1.45,0,0,0,.23-1.3,1.33,1.33,0,0,0-.47-.67c.55-.3,1.28-.63,2-1,5.37-2.42,16.53-7.45,19.08-26.8a5.84,5.84,0,0,1,.46-.56A17.68,17.68,0,0,0,116.32,23.2ZM90.1,8.55a2.13,2.13,0,0,1,.25,0l.18,0,.35.09.2.06.3.11.19.08.27.12.16.08.23.12.13.07.2.11.08,0,.16.1h0a.85.85,0,0,1-.17-.16l-.07-.08-.24-.3a2.31,2.31,0,0,1-.43-.81,3.81,3.81,0,0,1-.12-.51A4,4,0,0,1,92,5.45,2.24,2.24,0,0,1,92.32,5a1.42,1.42,0,0,1,.13-.12,2.52,2.52,0,0,1,.25-.21l.17-.08a1,1,0,0,1,.24-.1l.17,0,.23,0h0l.18,0,.16,0,.21.07.13,0a1,1,0,0,1,.2.11.53.53,0,0,0,.1.06,1.19,1.19,0,0,1,.22.23,1.27,1.27,0,0,1,.2.38.43.43,0,0,1,0,.11,1.07,1.07,0,0,1,0,.25.28.28,0,0,1,0,.09.77.77,0,0,1-.08.27v0a.71.71,0,0,1-.19.23l-.06.06-.18.11-.08,0a.69.69,0,0,1-.24,0H94.1a.58.58,0,0,1-.18,0l-.1,0a.67.67,0,0,1-.26-.19l-.15-.15h0a.45.45,0,0,0-.18-.07h0l-.07,0,0,0a.46.46,0,0,0-.07.07l0,.06-.07.15,0,.08a2.29,2.29,0,0,0-.08.35A3.79,3.79,0,0,0,94.39,10l1.25.94a1.53,1.53,0,0,1-.39-.7c0-.08,0-.14,0-.19A2.07,2.07,0,0,1,95.49,8a1.93,1.93,0,0,1,.74-.55,2.65,2.65,0,0,0-.1.42,1.94,1.94,0,0,0,.08.9,1.37,1.37,0,0,0,.42.61,4.49,4.49,0,0,0,2.21.5,3.55,3.55,0,0,0-.48.79,2.8,2.8,0,0,0,.15,2.71,2.56,2.56,0,0,0,2.11,1.14h.06a2.15,2.15,0,0,0,1.89-1.17,2.38,2.38,0,0,0,.29-1.18,5.11,5.11,0,0,1,1.87,3.27c.14,1.2-1.09,2.14-2.15,2.59a15.9,15.9,0,0,0-6.78-5.33c-.33-.12-.62-.21-.9-.29s-.38-.06-.57-.1-.45-.1-.67-.12h0l-.14-.1-.43-.31-.35-.23-.42-.29L92,11.07l-.38-.25-.27-.17-.33-.2-.23-.14-.26-.14-.17-.09L90.18,10l-.11,0-.1,0h0c-.16,0-.21.09-.23.19s.06.35,0,.58a.9.9,0,0,1-.52.7,1.25,1.25,0,0,1-.27.1l-.09,0-.19,0H88.6a1.17,1.17,0,0,1-.26,0l-.08,0a1.68,1.68,0,0,1-.3-.15l0-.05a1,1,0,0,1-.2-.2L87.65,11a1.25,1.25,0,0,1-.16-.35h0a1.18,1.18,0,0,1,0-.21,1.6,1.6,0,0,1,.14-.8,1.68,1.68,0,0,1,.4-.54,2,2,0,0,1,.73-.42,2.8,2.8,0,0,1,.5-.12h.17l.25,0h.15ZM83.84,6a1.61,1.61,0,0,0,.49-1.4A2,2,0,0,1,85,3a6.07,6.07,0,0,0,.77-1,2.16,2.16,0,0,0,.33-.81,2.17,2.17,0,0,0,.31.79,7.25,7.25,0,0,0,.79,1,2,2,0,0,1,.69,1.59A1.58,1.58,0,0,0,88.37,6a3.91,3.91,0,0,1,1,1.92,3.45,3.45,0,0,0-.86.16,2.27,2.27,0,0,0-1.6,2.67,1.76,1.76,0,0,0,1.73,1.35,1.73,1.73,0,0,0,.86-.23,1.41,1.41,0,0,0,.82-1.18c.44.24,1.17.7,2.22,1.43h-.09a4,4,0,0,0-2.94,1.11,2.44,2.44,0,0,0-.54,1.9,1.93,1.93,0,0,0,.11.34,7.59,7.59,0,0,1-2.8-1.61l-.19-.16-.19.16a7.59,7.59,0,0,1-2.8,1.61,1.24,1.24,0,0,0,.1-.29,2.43,2.43,0,0,0-.54-2,4,4,0,0,0-2.93-1.11h-.1c1-.73,1.79-1.19,2.22-1.43a1.45,1.45,0,0,0,.82,1.18,1.74,1.74,0,0,0,.87.23,1.76,1.76,0,0,0,1.73-1.35,2.28,2.28,0,0,0-1.61-2.67A3.29,3.29,0,0,0,82.83,8,3.9,3.9,0,0,1,83.84,6ZM92,14.47h0c5.87,0,12.06,6,12.53,17.42v0c0,.2,0,.36,0,.54,0,.56,0,1.09,0,1.57v.25c0,.53,0,1-.06,1.55,0,.26,0,.5-.06.74v.2c0,.19,0,.38,0,.56v0c0,.2,0,.38-.06.57-1.75,17.71-12.09,19.88-12.19,19.9a3.69,3.69,0,0,1-.87.12,2.47,2.47,0,0,1-1.12-.26,1.65,1.65,0,0,0,.48-.67,1.68,1.68,0,0,0-.42-1.82,1.8,1.8,0,0,0-1.18-.43l-.2,0h0A1.71,1.71,0,0,0,87.42,56l-.36-.06a3.4,3.4,0,0,1,.31-.8h0a4.35,4.35,0,0,0,.34-.93c0-.15,0-.35-.45-.83a4.46,4.46,0,0,1-.88-1.92l0-.09h-.52l0,.09a4.45,4.45,0,0,1-.88,1.93c-.4.48-.46.66-.44.86a5.22,5.22,0,0,0,.34.91,2.63,2.63,0,0,1,.3.78L84.8,56a1.74,1.74,0,0,0-1.43-1.15h0l-.21,0a1.77,1.77,0,0,0-1.17.43A1.64,1.64,0,0,0,81.57,57a1.56,1.56,0,0,0,.48.67,2.47,2.47,0,0,1-1.12.26,3.59,3.59,0,0,1-.84-.11c-.14,0-10.47-2.2-12.23-19.91,0-.19,0-.37-.06-.57v0c0-.18,0-.37,0-.56v-.2c0-.24,0-.48,0-.74,0-.5,0-1-.06-1.55V34c0-.5,0-1,0-1.59,0-.18,0-.34,0-.54v0c.46-11.44,6.65-17.42,12.52-17.42h0a1.57,1.57,0,0,0-.13.65,1.49,1.49,0,0,0,.65,1.24,1.55,1.55,0,0,0,.88.27,1.84,1.84,0,0,0,.33,0,1.57,1.57,0,0,0,.71-.37,6.21,6.21,0,0,0,.75-.18h0a8.26,8.26,0,0,0,2.74-1.56A8.2,8.2,0,0,0,88.85,16h0a4.75,4.75,0,0,0,.74.19,1.62,1.62,0,0,0,.71.37,1.84,1.84,0,0,0,.33,0,1.52,1.52,0,0,0,.88-.27,1.48,1.48,0,0,0,.66-1.24A1.58,1.58,0,0,0,92,14.47ZM86.86,54.83a3.4,3.4,0,0,0-.39,1h-.74a3.4,3.4,0,0,0-.37-1,3.71,3.71,0,0,1-.28-.71,3.06,3.06,0,0,1,.3-.42,4,4,0,0,0,.72-1.24,4.13,4.13,0,0,0,.72,1.24,2.31,2.31,0,0,1,.3.42A3.71,3.71,0,0,1,86.86,54.83ZM73.37,9.9l.85-.07a2.94,2.94,0,0,0,1.36-.43A1.81,1.81,0,0,0,76,7.47a2,2,0,0,1,1,2.62c0,.09-.08.26-.15.43a1.06,1.06,0,0,1-.3.46h0L77.83,10a4.08,4.08,0,0,0,1.62-2.62,2,2,0,0,0,0-.59h0a2.14,2.14,0,0,0-.08-.34l0-.08a.52.52,0,0,0-.07-.15l0-.06a.46.46,0,0,1-.07-.07l0,0-.08,0h0a.44.44,0,0,0-.19.07h0s-.11.1-.15.15a.64.64,0,0,1-.25.19l-.1,0a.58.58,0,0,1-.19,0h0a.59.59,0,0,1-.23,0l-.08,0a.78.78,0,0,1-.18-.11L77.5,6.3a.87.87,0,0,1-.19-.23v0a.78.78,0,0,1-.09-.27.28.28,0,0,0,0-.09,1.07,1.07,0,0,1,0-.25.45.45,0,0,1,0-.11A1.5,1.5,0,0,1,77.46,5a1.25,1.25,0,0,1,.23-.23.47.47,0,0,0,.09-.06l.2-.11.13,0,.21-.07.16,0,.19,0h0l.23,0,.18,0a1.22,1.22,0,0,1,.24.1l.16.08a2.52,2.52,0,0,1,.25.21.74.74,0,0,1,.13.12,2.27,2.27,0,0,1,.34.48,4.1,4.1,0,0,1-.35,3.63l-.24.3a.6.6,0,0,0-.08.08.81.81,0,0,1-.16.16h0l0,0,.15-.09.08,0,.19-.11L80,9.28l.23-.12.17-.08L80.64,9l.19-.08.3-.11.2-.06.35-.09.18,0,.26,0,.29,0h.16l.25,0H83a2.8,2.8,0,0,1,.5.12l.19.08a2.37,2.37,0,0,1,.54.34,1.52,1.52,0,0,1,.39.54,1.74,1.74,0,0,1,.15.8,1.12,1.12,0,0,1,0,.21h0a1,1,0,0,1-.16.35.41.41,0,0,1,0,.09.8.8,0,0,1-.21.2.12.12,0,0,1,0,.05,1.4,1.4,0,0,1-.3.15l-.08,0a1.09,1.09,0,0,1-.26,0h-.09l-.19,0-.09,0a1.17,1.17,0,0,1-.26-.1.89.89,0,0,1-.53-.7c0-.23.06-.44,0-.58s-.07-.16-.22-.19h0l-.11,0L82,10l-.18.09-.18.09-.26.14-.23.14-.32.2-.28.17-.38.25-.31.21-.42.29-.34.23-.44.31-.13.1h0c-.22,0-.45.08-.67.12s-.38.05-.58.1-.57.17-.89.29a15.82,15.82,0,0,0-6.78,5.33c-1.08-.46-2.29-1.39-2.15-2.59a5.1,5.1,0,0,1,1.86-3.27,2.4,2.4,0,0,0,.3,1.18,2.12,2.12,0,0,0,1.88,1.17h.06a2.59,2.59,0,0,0,2.12-1.14,2.83,2.83,0,0,0,.14-2.71,3.55,3.55,0,0,0-.48-.79ZM84.17,67a1.86,1.86,0,0,1-.09.48,1.44,1.44,0,0,1-.23.4,1.12,1.12,0,0,1-.74.42h-.33l-.14,0-.1,0-.12,0-.09,0-.11-.08L82.15,68l-.08-.1a.22.22,0,0,1,0-.08.43.43,0,0,1,0-.12s0,0,0-.08a.76.76,0,0,1,0-.15.28.28,0,0,1,0-.09.71.71,0,0,1,0-.24h0a.62.62,0,0,1,.1-.2l.06,0a1.36,1.36,0,0,1,.12-.12l.09,0a.44.44,0,0,1,.16-.06l.11,0h.08l.19,0a.81.81,0,0,1,.47.31,1.85,1.85,0,0,1,.11.22h0a1.17,1.17,0,0,0-.48-.83,3.9,3.9,0,0,0-.52-.37q-.41-.24-1-.51c-.25-.13-.53-.26-.83-.39l-.43-.2L79,64.34,78.17,64c-.55-.27-1.13-.56-1.73-.89l-.91-.51c-.62-.36-1.25-.76-1.88-1.2A26.7,26.7,0,0,1,70.76,59a26.07,26.07,0,0,1-3.69-4.28A26.7,26.7,0,0,1,65.41,52a39.37,39.37,0,0,1-4.06-13.58c-.08-.59-4.86-4.32-5.09-11.74a19.43,19.43,0,0,1,.21-3.41h0a18.57,18.57,0,0,1,.39-1.86c0-.19.11-.37.16-.56.12-.4.25-.8.39-1.19.08-.2.15-.4.23-.59.16-.38.32-.74.5-1.1.08-.17.16-.34.25-.5.23-.45.49-.88.75-1.29,0-.05.07-.12.11-.17.3-.47.63-.9,1-1.33l.31-.36q.38-.44.75-.84l.39-.39c.25-.24.5-.48.76-.7l.38-.33c.31-.25.62-.49.94-.71l.22-.17c.39-.27.79-.51,1.18-.73l.32-.16.86-.42.41-.17.77-.27.39-.12a6.51,6.51,0,0,1,.83-.18L69,9.09A6.43,6.43,0,0,1,70,9h.25a5.47,5.47,0,0,1,.72.08l.28.07a3.49,3.49,0,0,1,.57.2l.23.1a3.65,3.65,0,0,1,.65.46h0a3.91,3.91,0,0,1,.37.44,2.47,2.47,0,0,1,.29.53v0a3,3,0,0,1,.19.65c0,.07,0,.13,0,.2a2.61,2.61,0,0,1,0,.39h0c0,.08,0,.15-.05.22a1.73,1.73,0,0,1-.07.31c0,.07-.07.12-.1.19a1.57,1.57,0,0,1-.14.25l-.14.15h0l-.18.2h0l-.18.12h0c-.07,0-.14.1-.22.14l-.2.07L72,13.9l-.2,0h0l-.22,0h0a1.59,1.59,0,0,1-1.39-.86,1.86,1.86,0,0,1-.23-.88A1.77,1.77,0,0,1,70.5,11h0l-.15.06a8.31,8.31,0,0,0-.87.39l-.26.16A5.09,5.09,0,0,0,68,12.76a6,6,0,0,0-1.08,2.63c-.18,1.51,1.17,2.62,2.45,3.18l.53.2h0a14.44,14.44,0,0,1,6.72-5.5c.12,0,.24-.08.36-.12s.32-.11.48-.15h0a9.09,9.09,0,0,1,1-.2l.35,0a5.85,5.85,0,0,1,.59,0h.27c1.7.07,3.1.73,2.93,2.37h0a1.11,1.11,0,0,1-.85.93h0l-.2,0-.12,0h-.1a1.06,1.06,0,0,1-.33-.14.91.91,0,0,1-.4-.82,1.1,1.1,0,0,1,.48-.83h0a.73.73,0,0,1,.22-.09h.09a1,1,0,0,1,.17,0h0a4.76,4.76,0,0,0-1.32-.21h-.14l-.51,0-.56,0a5.86,5.86,0,0,0-.58.1l-.56.1-.58.18c-.18.06-.37.11-.55.18s-.38.16-.57.24L75.7,15c-.18.09-.37.21-.55.32s-.36.2-.54.32a6.08,6.08,0,0,0-.54.39c-.17.12-.35.24-.52.38s-.34.31-.51.46l-.51.46-.48.53c-.16.18-.33.35-.48.53s-.3.4-.45.6-.3.39-.45.6-.27.45-.41.68-.28.43-.41.66-.25.51-.37.76-.25.47-.36.72-.23.56-.34.84-.21.51-.3.78-.19.62-.29.93-.17.54-.25.83-.16.71-.24,1.07-.13.54-.18.82-.13.88-.19,1.32c0,.24-.08.47-.11.71-.07.69-.13,1.41-.16,2.15v0c0,.7,0,1.41,0,2.15h0a1.93,1.93,0,0,0,0,.24c0,.53,0,1.05.06,1.57l.06.94c0,.19,0,.38,0,.57,1.63,19,12.73,21,12.73,21a4.13,4.13,0,0,0,.66.11h.32l.26,0,.18,0a3,3,0,0,0,.45-.09h.05a3.17,3.17,0,0,0,.41-.17l.12-.07.22-.14.11-.08.16-.14.07-.07.12-.13,0-.06a.51.51,0,0,0,.08-.13h0l-.23,0h-.08l-.15,0a.44.44,0,0,1-.16-.06l-.12-.06-.13-.11-.09-.1a1.09,1.09,0,0,1-.08-.15l-.06-.12c0-.06,0-.11,0-.17a.59.59,0,0,0,0-.13c0-.06,0-.12,0-.18s0-.09,0-.13a1.39,1.39,0,0,1,.06-.19.42.42,0,0,0,0-.1,1.16,1.16,0,0,1,.2-.25,1.4,1.4,0,0,1,.32-.18l.09,0a1.8,1.8,0,0,1,.32-.06h.08l.19,0a1.13,1.13,0,0,1,.18,0l.07,0a1,1,0,0,1,.26.16.43.43,0,0,1,.1.09.94.94,0,0,1,.18.25.75.75,0,0,1,.07.12,1.85,1.85,0,0,1,.15.53,2.19,2.19,0,0,1-.25,1.15,3.18,3.18,0,0,1-.76.92c-.08.06-.13.13-.21.19a4.91,4.91,0,0,1-2.89.91A11,11,0,0,1,79,63.19h0a31.46,31.46,0,0,1,3.94,2A2.2,2.2,0,0,1,84.16,67s0,.06,0,.09Zm3.17,2.6a4.67,4.67,0,0,1-.37.5,4.67,4.67,0,0,0-.86,1.53,4.68,4.68,0,0,0-.87-1.53,3.92,3.92,0,0,1-.36-.5,3.85,3.85,0,0,1,.31-.83,4,4,0,0,0,.49-1.45h0l.41,0h0l.42,0h0a3.86,3.86,0,0,0,.5,1.45A3.85,3.85,0,0,1,87.34,69.64Zm.18-3a6.29,6.29,0,0,1-1.41.2h0a5.65,5.65,0,0,1-1.4-.21,2.89,2.89,0,0,0-1.41-1.86,17.31,17.31,0,0,0-2.63-1.41l-.83-.4a11.72,11.72,0,0,0,.92-2.61,5.16,5.16,0,0,0,2.62-.89l.13-.09A3.22,3.22,0,0,0,85,56.54h0a9.77,9.77,0,0,1,1.15-.09,10.75,10.75,0,0,1,1.17.08,0,0,0,0,0,0,0,3.2,3.2,0,0,0,1.46,2.8l.13.09a5.12,5.12,0,0,0,2.61.89,11.72,11.72,0,0,0,.92,2.61l-.82.4a17.07,17.07,0,0,0-2.67,1.44A2.76,2.76,0,0,0,87.52,66.61Zm23.35-28.18c-1.69,13-7.21,19.39-12.3,22.93-1,.66-1.9,1.22-2.79,1.71S94,64,93.24,64.34L91.77,65l-1.23.58-.51.27c-.78.43-1.24.85-1.25,1.35h0a.74.74,0,0,1,.57-.53l.2,0h.08l.1,0a.44.44,0,0,1,.16.06l.09,0,.13.12s0,0,0,0a.71.71,0,0,1,.11.21h0c0,.09,0,.17,0,.25s0,.06,0,.08a.78.78,0,0,1,0,.16l0,.08s0,.09,0,.12l-.06.08a.39.39,0,0,1-.08.1l-.07.06-.1.08-.09,0-.12,0-.11,0-.13,0h-.33a1.14,1.14,0,0,1-.75-.42,1.41,1.41,0,0,1-.22-.4,1.28,1.28,0,0,1-.09-.48h0V67a2.19,2.19,0,0,1,1.19-1.71,30.75,30.75,0,0,1,3.94-2h0A11,11,0,0,1,92,59.78a4.86,4.86,0,0,1-2.89-.91c-.08-.06-.14-.13-.21-.19a3.4,3.4,0,0,1-.77-.92,2.08,2.08,0,0,1-.24-1.15h0a1.59,1.59,0,0,1,.14-.52l.07-.12a1.26,1.26,0,0,1,.19-.25l.09-.09a1,1,0,0,1,.26-.16l.08,0a1.13,1.13,0,0,1,.18,0,1.08,1.08,0,0,1,.19,0h.07a1.65,1.65,0,0,1,.32.06l.1,0a1.57,1.57,0,0,1,.31.18,1.16,1.16,0,0,1,.2.25.42.42,0,0,1,0,.1,1.46,1.46,0,0,1,.07.19.57.57,0,0,1,0,.13,1.09,1.09,0,0,1,0,.18.59.59,0,0,1,0,.13,1,1,0,0,1,0,.17s0,.08,0,.12l-.09.15-.09.09a1.36,1.36,0,0,1-.12.12l-.12.06a.49.49,0,0,1-.17.06l-.15,0h-.08l-.23,0h0a1.17,1.17,0,0,0,.08.13l0,.06.11.13.08.07a1.14,1.14,0,0,0,.16.14l.1.08.23.14.11.07a3.33,3.33,0,0,0,.42.17h.05a3.12,3.12,0,0,0,.44.09l.19,0,.26,0h.32a4.32,4.32,0,0,0,.66-.11s11.09-2,12.73-21h0c0-.19,0-.38,0-.57s0-.62.07-.94c0-.52,0-1,.06-1.57v0c0-.07,0-.14,0-.21h0c0-.74,0-1.45,0-2.15h0v0c0-.74-.08-1.46-.16-2.15,0-.23-.07-.44-.1-.66-.06-.46-.11-.93-.2-1.37,0-.26-.11-.49-.16-.74s-.16-.78-.26-1.15-.15-.5-.22-.75-.2-.69-.31-1-.19-.48-.29-.72-.23-.61-.35-.9-.23-.44-.34-.67-.26-.55-.4-.81-.25-.41-.37-.61-.3-.5-.45-.73-.28-.37-.41-.56-.32-.44-.49-.64-.3-.33-.45-.5-.33-.38-.51-.56-.32-.29-.48-.43-.35-.34-.53-.49l-.51-.37-.56-.41c-.17-.11-.34-.2-.52-.3L96.51,15,96,14.77c-.19-.09-.39-.18-.58-.25s-.37-.12-.55-.18-.39-.13-.59-.18l-.55-.1c-.2,0-.39-.08-.59-.1l-.55,0-.52,0h-.13a4.71,4.71,0,0,0-1.32.21h0l.16,0h.09a.56.56,0,0,1,.22.09h0a1.09,1.09,0,0,1,.47.83.89.89,0,0,1-.4.82,1,1,0,0,1-.33.14h-.1l-.12,0-.18,0h0a1.11,1.11,0,0,1-.86-.93h0c-.17-1.64,1.23-2.3,2.93-2.37h.28a5.65,5.65,0,0,1,.58,0l.35,0a9.7,9.7,0,0,1,1,.2h0c.17,0,.33.1.49.15a3.59,3.59,0,0,1,.35.12,14.49,14.49,0,0,1,6.73,5.5h0c1.4-.44,3.19-1.66,3-3.38a5.23,5.23,0,0,0-.48-1.63,6.31,6.31,0,0,0-.6-1A5.25,5.25,0,0,0,103,11.57a4.27,4.27,0,0,0-.38-.22l-.21-.1-.39-.17-.31-.12h0a1.78,1.78,0,0,1,.56,1.26,1.86,1.86,0,0,1-.23.88,1.58,1.58,0,0,1-1.38.86h0l-.22,0h0l-.21,0-.24-.08-.2-.07-.21-.14-.18-.12c-.07-.06-.12-.13-.18-.19s-.11-.1-.15-.16a2,2,0,0,1-.13-.25,1.18,1.18,0,0,1-.11-.19c0-.1,0-.2-.06-.3a1,1,0,0,1,0-.23h0v0a2.22,2.22,0,0,1,0-.36c0-.06,0-.13,0-.2s.09-.31.14-.47a1.27,1.27,0,0,1,.06-.18v0a2.9,2.9,0,0,1,.67-1h0a3,3,0,0,1,.65-.46l.23-.1a3.38,3.38,0,0,1,.56-.2l.28-.07A5.47,5.47,0,0,1,102,9h.25a6.67,6.67,0,0,1,1,.08l.27.05c.27,0,.54.1.82.18s.26.08.39.12.51.17.77.27l.41.17c.29.13.57.27.86.42a3.18,3.18,0,0,1,.32.16,13.44,13.44,0,0,1,1.18.73l.23.17c.32.22.63.46.93.71l.39.33c.25.22.51.46.76.7l.38.39q.39.4.75.84l.31.36c.34.43.66.86,1,1.33l.11.18c.26.41.51.83.75,1.28l.24.5c.18.36.35.72.5,1.1.08.19.16.39.23.58.14.4.27.8.39,1.21.06.18.12.36.17.55a18.55,18.55,0,0,1,.38,1.86C117.19,33,111,37.76,110.87,38.43Z"/>
            <path d="M75.23,57.46a7.12,7.12,0,0,1-1.91,2.19h0a31.06,31.06,0,0,0,4.62,3v0a7.77,7.77,0,0,0,1.06-3A18.34,18.34,0,0,1,75.23,57.46Zm2.49,4.38a29.44,29.44,0,0,1-3.47-2.21,8.71,8.71,0,0,0,1.16-1.33,19.53,19.53,0,0,0,3,1.63A8.88,8.88,0,0,1,77.72,61.84Z"/>
            <path d="M74.33,56.75a19.73,19.73,0,0,1-3.9-4.42,6.35,6.35,0,0,1-2.52,1.54h0a26.19,26.19,0,0,0,4.42,5A10.52,10.52,0,0,0,74.33,56.75Zm-2,1.31a25.27,25.27,0,0,1-3.52-3.92,6.69,6.69,0,0,0,1.5-.93,21.24,21.24,0,0,0,3.23,3.64A10.61,10.61,0,0,1,72.34,58.06Z"/>
            <path d="M61.88,23.55a4,4,0,0,1,.69-.53.27.27,0,0,0,0-.11c0-.3-.19-1-.2-1.89a4.53,4.53,0,0,1,2.33-4.22c.31-.18.51-.27.51-.27.44-.17.5-3.35,2.52-4.94a6.77,6.77,0,0,1,1.88-1h0a3,3,0,0,0-.43,0h-.11l-.32,0-.38.05-.35.08-.41.12-.38.13-.43.17-.4.19-.44.23-.42.24-.46.28-.42.29a5,5,0,0,0-.46.34l-.43.33-.46.39-.41.38-.45.44-.41.42c-.15.16-.29.33-.43.5l-.39.45c-.14.18-.27.37-.41.56l-.36.49c-.13.19-.26.4-.39.61s-.21.33-.32.51l-.36.68-.27.53c-.12.25-.22.5-.33.76s-.15.35-.22.53-.2.59-.29.89-.11.31-.15.47c-.13.46-.24.94-.33,1.42h0a19.35,19.35,0,0,0-.32,3.22,15.78,15.78,0,0,0,2.74,8.86h0A5.11,5.11,0,0,1,60,33.9a8.41,8.41,0,0,1,.69-3.65h0a12.23,12.23,0,0,1-.34-2.88A5.35,5.35,0,0,1,61.88,23.55Zm-2.37,9.09a14.59,14.59,0,0,1-1.13-9.46,16.19,16.19,0,0,1,8.29-11.34,9.16,9.16,0,0,0-1.61,3.55c-.06.24-.14.53-.19.67a3.87,3.87,0,0,0-.45.25c-3.14,1.91-2.67,4.88-2.47,6.15,0,.08,0,.17,0,.25a3.81,3.81,0,0,0-.52.44c-2,2.09-1.82,4.83-1.35,7A9,9,0,0,0,59.51,32.64Z"/>
            <path d="M64.63,45.44l.21,0,.28-.06.21-.05.28-.08.2-.06.27-.09.18-.06.25-.09.13,0,.22-.09.07,0,.17-.09h0a52.66,52.66,0,0,1-1.11-6h0a2.16,2.16,0,0,1-.47.16l-.15,0c-.14,0-.3.07-.46.09l-.1,0-.6.06H63l-.37,0h0a.06.06,0,0,0,0,0l-.05,0s0,.06,0,.09,0,0,0,0a.85.85,0,0,0,0,.16.13.13,0,0,1,0,.06c0,.08,0,.18,0,.27A44.57,44.57,0,0,0,63.9,45.5h.28l.19,0Zm-1.57-5.85h.43a9.6,9.6,0,0,0,2-.21c.12.91.39,2.59.93,4.93a10.11,10.11,0,0,1-2.11.58A43.79,43.79,0,0,1,63.06,39.59Z"/>
            <path d="M66.7,24.34l-.3,0-.51-.06-.28,0L65,24.11,64.38,24l-.16,0h0a2.56,2.56,0,0,0-.39,0h-.08l-.22,0-.29.07-.21.08a1.74,1.74,0,0,0-.26.15l-.18.14a2.5,2.5,0,0,0-.23.23,1.66,1.66,0,0,0-.16.21,2.59,2.59,0,0,0-.19.33c0,.08-.09.16-.13.26s-.09.29-.14.44a3,3,0,0,0-.08.32,4.94,4.94,0,0,0-.09.61c0,.1,0,.2,0,.31a10.12,10.12,0,0,0,0,1.11h0a2.2,2.2,0,0,0,.12.62.5.5,0,0,0,0,.13,1.37,1.37,0,0,0,.28.45h0a1.63,1.63,0,0,0,.42.31l.11.06A2.64,2.64,0,0,0,63,30h0a5.44,5.44,0,0,0,.6.08h.5c.21,0,.43,0,.66-.05L65,30c.3,0,.59-.09.88-.15h0a24.88,24.88,0,0,1,1.34-5.47H67Zm-1.29,5a8.51,8.51,0,0,1-1.48.15c-1.57,0-1.8-.64-1.83-1.27a4.53,4.53,0,0,1,.76-3.27,1.28,1.28,0,0,1,1-.42,1.53,1.53,0,0,1,.3,0l.55.09a17,17,0,0,0,1.73.27A30.25,30.25,0,0,0,65.41,29.33Z"/>
            <path d="M69.8,51.27a27.85,27.85,0,0,1-2.37-5.49s0,0,0,0a7.4,7.4,0,0,1-3.07.94,32.22,32.22,0,0,0,2.86,6s0,0,.08,0a5.07,5.07,0,0,0,2.54-1.46Zm-2.35.8a30.83,30.83,0,0,1-2.33-4.83,7.7,7.7,0,0,0,2-.61,28.59,28.59,0,0,0,2,4.53A4.46,4.46,0,0,1,67.45,52.07Z"/>
            <path d="M66.57,17.88A2,2,0,0,0,66,17.8h0a1.38,1.38,0,0,0-.2,0,2,2,0,0,0-.41.07l-.22.09a2.06,2.06,0,0,0-.33.17,1.59,1.59,0,0,0-.21.15,2.18,2.18,0,0,0-.28.25,1.63,1.63,0,0,0-.17.2,3.62,3.62,0,0,0-.22.32c0,.08-.09.16-.13.25s-.09.26-.13.4a1.88,1.88,0,0,0-.12.77,2.28,2.28,0,0,0,0,.26,3.46,3.46,0,0,0,.12.82,1.49,1.49,0,0,0,.21.48,2.89,2.89,0,0,0,.34.39l.14.11a2,2,0,0,0,.31.2l.14.07a3.24,3.24,0,0,0,.52.19h0a5.05,5.05,0,0,0,.56.12l.18,0,.4,0h.45a6.52,6.52,0,0,0,.8-.06h0a15.8,15.8,0,0,1,1.69-3.37c-.38-.13-2-1.66-2.78-1.89Zm2,2.06a16.49,16.49,0,0,0-1.31,2.66,4,4,0,0,1-.49,0c-.53,0-2.3-.08-2.58-1.18a2.69,2.69,0,0,1,.39-2.33A1.77,1.77,0,0,1,66,18.38a1.67,1.67,0,0,1,.44.06,7.68,7.68,0,0,1,1.7,1.16Z"/>
            <path d="M62.92,37.8l.34.08.11,0a3.42,3.42,0,0,0,.46,0h.06a5.67,5.67,0,0,0,.9-.08l.09,0a9.13,9.13,0,0,0,1-.22h0c-.14-1.71-.18-3-.18-4.06a19.42,19.42,0,0,1,.11-2.45,9.13,9.13,0,0,1-1,.11h-.28l-.44,0H64l-.57,0-.25,0q-.37,0-.72-.09h-.31l-.16,0-.17.07-.13.08a.93.93,0,0,0-.14.14l-.11.13c0,.06-.07.13-.11.2s-.05.11-.07.18a2.13,2.13,0,0,0-.08.27l-.06.21c0,.11,0,.23,0,.35s0,.15,0,.24,0,.29,0,.45v.23q0,.38,0,.78h0c0,.3.07.58.11.83,0,.08,0,.15,0,.22s.09.37.14.53,0,.1.05.15a3.37,3.37,0,0,0,.24.54l.06.1q.12.18.24.33l.09.1a2.13,2.13,0,0,0,.33.28l0,0a3,3,0,0,0,.4.2Zm-1.26-3.39c-.14-1.88.2-2.47.35-2.63a.31.31,0,0,1,.26-.11h.1a12.26,12.26,0,0,0,1.74.14c.34,0,.68,0,1-.05a39.67,39.67,0,0,0,.09,5.4,6.55,6.55,0,0,1-1.39.19C62.88,37.36,61.86,37,61.66,34.41Z"/>
          </g>
        </g>
      </g>
    </g>
  </g>
</svg>
